<svg width="24" height="24" viewBox="0 0 24 24" fill="none" xmlns="http://www.w3.org/2000/svg">
<path fill-rule="evenodd" clip-rule="evenodd" d="M21.8 12C21.8 12.1857 21.7263 12.3637 21.595 12.495C21.4637 12.6263 21.2857 12.7 21.1 12.7L4.58982 12.7L8.99562 17.1044C9.12706 17.2359 9.2009 17.4141 9.2009 17.6C9.2009 17.7859 9.12706 17.9642 8.99562 18.0956C8.86418 18.2271 8.6859 18.3009 8.50002 18.3009C8.31413 18.3009 8.13586 18.2271 8.00442 18.0956L2.40442 12.4956C2.33923 12.4306 2.28751 12.3534 2.25222 12.2683C2.21693 12.1833 2.19877 12.0921 2.19877 12C2.19877 11.9079 2.21693 11.8168 2.25222 11.7317C2.28751 11.6467 2.33923 11.5694 2.40442 11.5044L8.00442 5.90442C8.13586 5.77298 8.31413 5.69914 8.50002 5.69914C8.6859 5.69914 8.86417 5.77298 8.99562 5.90442C9.12706 6.03586 9.2009 6.21413 9.2009 6.40002C9.2009 6.58591 9.12706 6.76418 8.99562 6.89562L4.58982 11.3L21.1 11.3C21.2857 11.3 21.4637 11.3738 21.595 11.505C21.7263 11.6363 21.8 11.8144 21.8 12Z" fill="white"/>
</svg>
