<svg width="146" height="121" viewBox="0 0 146 121" fill="none" xmlns="http://www.w3.org/2000/svg">
<path d="M72.9472 120.57C112.78 120.57 145.071 93.7211 145.071 60.6015C145.071 27.482 112.78 0.63324 72.9472 0.63324C33.1141 0.63324 0.823059 27.482 0.823059 60.6015C0.823059 93.7211 33.1141 120.57 72.9472 120.57Z" fill="#0E1939"/>
<path fill-rule="evenodd" clip-rule="evenodd" d="M115.133 45.2244L115.133 45.2276C114.587 49.3758 111.11 58.1691 101.696 67.2676C95.6164 73.1427 83.8892 79.1208 82.0537 80.0388L81.904 80.1227C81.9331 80.1175 73.9041 82.014 63.694 80.0595C67.5817 79.8351 82.5439 75.2987 94.1128 66.3297C106.747 56.5358 112.129 44.275 110.283 29.8814C111.676 31.2486 115.599 39.994 115.133 45.2244Z" fill="#4E95B5"/>
<path fill-rule="evenodd" clip-rule="evenodd" d="M109.994 29.2848L110.265 29.7011C111.415 40.9767 108.33 49.8762 103.222 57.0387C101.193 59.8839 98.847 62.3924 96.3237 64.5547C95.2661 65.461 94.1777 66.3071 93.0681 67.091C83.9308 73.5472 72.7764 78.811 63.1193 80.0663L63.0764 80.072C63.1193 80.0663 57.3079 78.8577 53.0625 77.0794C55.3523 77.2079 60.9067 77.1472 67.8725 75.158C76.0161 72.8324 84.8089 67.2869 91.3073 61.3605C97.2025 55.9844 101.911 49.249 103.808 42.6784C106.456 33.5033 104.587 24.7805 104.755 23.0805C107.511 25.9845 108.238 26.557 109.994 29.2848Z" fill="#4E95B5"/>
<path fill-rule="evenodd" clip-rule="evenodd" d="M104.75 23.0294L104.751 23.0306C105.148 27.3706 105.311 31.2472 105.086 34.8331C104.42 45.4627 100.35 53.5366 88.897 63.5395C82.6964 68.9554 75.0925 73.0557 67.5364 75.2571C62.4177 76.7485 57.3208 77.3683 52.6972 76.9352C52.6972 76.9352 47.478 74.5716 45.472 72.9891C53.0559 72.9366 59.9176 71.7552 67.596 69.4957C70.5664 68.6218 73.3233 67.5576 75.9513 66.0011C81.591 62.6606 83.8909 60.6899 87.8931 56.3159C90.6831 53.267 93.6053 49.7713 96.0138 45.3839C100.73 36.793 100.263 28.6747 99.341 18.7827C102.53 20.9531 104.216 22.4502 104.75 23.0294Z" fill="#207E9A"/>
<path fill-rule="evenodd" clip-rule="evenodd" d="M99.2229 18.7045C99.5569 21.7756 99.9711 24.9398 100.083 28.0213C100.242 32.3796 99.7912 37.3791 97.4073 42.6395C97.2162 43.0612 97.0112 43.4874 96.7945 43.9168C92.9553 51.5244 85.0818 60.5012 76.9484 65.4246C76.8516 65.4833 76.7526 65.5407 76.6545 65.5986C71.2407 68.7916 64.0137 70.7727 57.7889 71.8522C51.8524 72.8817 46.8287 73.0919 45.1628 72.7519C44.7648 72.656 40.2164 68.9688 38.7169 67.0795C39.6969 67.1973 44.7463 68.6034 51.1925 68.1465C59.9153 67.5284 69.2925 64.1175 78.4141 58.0849C81.8565 55.8084 84.8408 52.7608 87.5428 49.1035C90.7893 44.7095 93.4489 39.7288 94.6741 34.8308C96.8894 25.9748 95.3465 18.0001 94.1136 15.8069C96.9848 17.1762 99.223 18.7057 99.2229 18.7045Z" fill="#207E9A"/>
<path fill-rule="evenodd" clip-rule="evenodd" d="M94.1136 15.8069L94.0753 15.9006C94.8756 17.6114 95.4313 19.6865 95.7104 21.9982C96.1059 25.2739 95.9452 29.0253 95.1339 32.8918C94.5505 35.6719 93.6309 38.5116 92.34 41.2766C88.0047 50.5629 79.4725 59.0042 69.4371 63.2819C67.41 64.1459 65.4916 64.8876 63.6545 65.5148C58.4717 67.2843 53.9401 68.1371 49.4725 68.2148C45.902 68.277 42.372 67.8445 38.5753 66.9823C38.5685 66.9747 36.6531 64.7824 35.3516 62.9392C38.3859 63.5126 44.9783 64.6206 52.4776 63.639C60.7623 62.5547 69.9491 58.7862 76.0634 53.5739C81.6448 48.8158 86.7974 42.7837 89.0901 36.4055C92.496 26.9304 90.9279 17.2306 90.3087 14.1962C93.9053 15.707 92.4044 15.0566 94.1136 15.8069Z" fill="#207E9A"/>
<path fill-rule="evenodd" clip-rule="evenodd" d="M73.4757 36.8289C69.1551 41.5954 64.7243 44.7512 60.3597 46.7287C56.7825 48.3495 53.2741 49.2331 49.9816 49.6224C47.1484 49.9574 44.476 49.9286 42.0555 49.6956C40.1841 49.5154 38.4621 49.2143 36.9367 48.8629C32.5011 47.8411 29.8617 46.4695 29.96 46.2014C29.8436 45.5024 30.2928 40.5564 30.8049 39.0657C30.9309 38.6988 34.7425 44.1401 44.8067 45.3634C52.2927 46.2732 60.984 45.1856 67.8199 39.325C70.5648 38.5462 73.3727 36.8563 73.4757 36.8289Z" fill="#0EE5E0"/>
<path fill-rule="evenodd" clip-rule="evenodd" d="M81.6828 28.8379C80.3747 31.2754 77.3088 34.8489 73.1952 36.9783C63.0249 49.6922 43.37 53.6515 29.9658 46.3475C29.9152 48.1388 30.5001 51.5492 30.5001 51.5492C30.7676 51.6781 33.2858 52.8632 37.1873 53.7212C39.236 54.1716 41.6662 54.5313 44.3518 54.6006C46.9405 54.6674 49.7667 54.4636 52.7181 53.8105C53.4992 53.6376 54.2889 53.4339 55.0855 53.1946C62.4385 50.9858 72.0672 46.897 78.1811 37.2031C79.5901 34.969 81.0756 31.814 81.6828 28.8379Z" fill="#0EE5E0"/>
<path fill-rule="evenodd" clip-rule="evenodd" d="M67.7893 39.3632C64.8439 41.6981 61.7344 43.5467 58.8887 44.2609C58.5353 44.3495 58.1871 44.432 57.8415 44.5112C54.586 45.2565 51.6713 45.5859 49.0802 45.6222C48.3644 45.6322 47.6729 45.6203 47.0059 45.5883C44.8475 45.4851 42.942 45.1765 41.2775 44.75C36.3969 43.0227 33.3927 41.7624 30.7744 39.1038C30.9211 38.5242 31.7425 34.9166 33.6402 31.9115C39.5585 38.9038 53.8483 43.8211 67.7893 39.3632Z" fill="#0EE5E0"/>
<path fill-rule="evenodd" clip-rule="evenodd" d="M86.4769 12.9194C86.477 12.9203 82.1553 11.7571 79.8417 11.5203C82.9392 14.886 85.571 22.2203 81.7034 28.849C79.5013 39.5241 69.2355 47.4172 61.3927 50.9547C57.5763 52.6762 51.7755 54.6804 46.0231 54.6165C39.9516 54.5489 33.7744 53.4551 30.5149 51.4141C30.8155 53.3551 32.3863 57.484 32.3912 57.4955C32.7736 57.6619 35.2897 58.5207 39.2508 58.9658C41.382 59.2053 43.932 59.3246 46.7917 59.1503C48.2937 59.0587 49.8809 58.8865 51.5385 58.6073C54.819 58.0547 58.2147 57.1447 61.5661 55.7949C67.098 53.567 72.5093 50.1404 77.0829 45.1418C80.3648 41.5549 83.6825 37.2977 85.5143 31.8579C85.8377 30.8969 86.1153 29.8994 86.3377 28.8619C86.7748 26.8232 86.9357 24.559 86.9402 22.1533C86.9432 20.5441 86.8761 18.8715 86.7745 17.1606C86.6905 15.7448 86.5765 14.333 86.4769 12.9194Z" fill="#0EE5E0"/>
<path fill-rule="evenodd" clip-rule="evenodd" d="M90.2836 14.1685C90.2836 14.1685 88.6553 13.5322 86.5129 12.9253C87.2561 20.2962 87.6043 27.0477 85.4199 32.6022C83.5811 37.2778 80.5681 41.2598 77.5237 44.656C74.2161 48.3457 70.7988 51.3342 66.9143 53.4859C60.8629 56.8381 54.0003 58.7921 47.9499 59.2254C40.3497 59.7696 34.5243 58.33 32.4553 57.688C32.9624 59.1284 35.1771 62.7384 35.1816 62.7456C35.5889 62.8526 38.1827 63.4661 42.1104 63.7317C45.4536 63.9577 49.764 63.9298 54.5116 63.1191C60.5061 62.0957 67.1979 59.8203 73.524 55.2251C74.3203 54.6468 75.1109 54.0344 75.8935 53.3803C79.2527 50.5724 82.7693 46.8788 85.4627 42.8526C87.2299 40.2108 88.6428 37.4261 89.4237 34.6537C90.1844 31.9536 90.63 29.3127 90.8497 26.798C91.0993 23.9409 91.0575 21.2468 90.8545 18.8139C90.72 17.2007 90.522 15.5257 90.284 14.1709L90.2836 14.1685Z" fill="#0EE5E0"/>
<path fill-rule="evenodd" clip-rule="evenodd" d="M115.138 45.5134C115.297 50.2324 114.537 57.1748 106.96 66.489C101.134 73.6512 91.1412 78.389 81.4469 80.1154C88.3213 76.9435 96.8653 72.0485 102.939 66.0333C109.427 59.608 113.673 51.794 115.138 45.5134Z" fill="#4E95B5"/>
<path d="M86.8128 13.1242L86.811 13.1236C84.6717 12.5176 82.4558 12.0458 80.1774 11.7242C81.3528 13.1503 82.2853 14.6936 82.9332 16.3241C83.4268 17.5661 83.7552 18.8585 83.9 20.1885C83.956 20.7029 83.9846 21.2229 83.9846 21.7478C83.9846 23.1988 83.7653 24.6127 83.3514 25.9737C83.0289 27.0348 82.5885 28.0639 82.0392 29.0529C80.3441 32.1043 77.6202 34.7757 74.1768 36.8406C72.5509 37.8156 70.7646 38.6546 68.8513 39.3356C68.3857 39.5013 67.913 39.6585 67.4328 39.805C65.1049 40.5154 62.6109 40.9952 60.005 41.2083C58.9986 41.2905 57.9761 41.3342 56.9393 41.3342C56.088 41.3342 55.2462 41.3052 54.4152 41.2494C54.1893 41.2342 53.9641 41.2174 53.7398 41.1982C53.4565 41.174 53.1742 41.1468 52.8937 41.1164C50.0361 40.8058 47.3253 40.1712 44.834 39.2663C40.343 37.6351 36.5658 35.1251 33.9332 32.0475C32.753 34.2379 31.8386 36.5462 31.2238 38.945V38.9452M86.8128 13.1242C88.084 13.4844 89.3278 13.8926 90.5412 14.3463L90.5434 14.3472M86.8128 13.1242C86.922 14.554 87.0276 15.972 87.1102 17.3646C87.2118 19.0754 87.2789 20.748 87.276 22.3572C87.2714 24.7629 87.1105 27.0271 86.6734 29.0658C86.451 30.1034 86.1734 31.1008 85.85 32.0618C84.0182 37.5016 80.7005 41.7588 77.4186 45.3458C72.845 50.3443 67.4337 53.7709 61.9018 55.9988C58.5504 57.3486 55.1548 58.2587 51.8742 58.8112C50.2166 59.0904 48.6294 59.2626 47.1274 59.3542C44.2677 59.5285 41.7177 59.4092 39.5865 59.1697C35.3744 58.6964 32.7958 57.7551 32.6857 57.6903M86.8128 13.1242L86.8126 13.1223M90.5434 14.3472C91.817 14.8232 93.0574 15.3482 94.2602 15.9213L94.2617 15.922M90.5434 14.3472C90.7814 15.702 90.9866 17.2007 91.1212 18.8139C91.3241 21.2468 91.366 23.9409 91.1164 26.7979C90.8966 29.3127 90.451 31.9536 89.6904 34.6537C88.9094 37.4261 87.4965 40.2108 85.7293 42.8526C83.036 46.8788 79.5193 50.5724 76.1601 53.3803C75.3776 54.0343 74.5869 54.6467 73.7906 55.2251C67.4645 59.8203 60.7728 62.0957 54.7782 63.1191C50.0306 63.9298 45.7202 63.9577 42.377 63.7316C38.1137 63.4433 35.422 62.7451 35.398 62.7389M90.5434 14.3472L90.543 14.3448M94.2617 15.922C95.999 16.7496 97.6577 17.6757 99.228 18.69L99.2296 18.6911M94.2617 15.922C95.062 17.6328 95.6177 19.7079 95.8968 22.0196C96.2922 25.2953 96.1316 29.0466 95.3202 32.9132C94.7369 35.6933 93.8173 38.5329 92.5264 41.298C88.191 50.5842 79.6589 59.0255 69.6234 63.3032C67.5964 64.1673 65.678 64.909 63.8409 65.5362C58.6581 67.3057 54.1265 68.1585 49.6589 68.2361C46.0678 68.2987 42.5178 67.861 38.703 66.9965M94.2617 15.922L94.261 15.9205M99.2296 18.6911C101.257 20.001 103.137 21.458 104.844 23.0438L104.845 23.0447M99.2296 18.6911C99.4474 21.1971 99.9906 24.3502 100.121 27.9378C100.28 32.2961 99.8292 37.2957 97.4453 42.556C97.2542 42.9777 97.0492 43.4039 96.8325 43.8333C92.8829 51.6594 84.8075 60.6064 76.9864 65.3412C76.8894 65.3998 76.7906 65.4572 76.6925 65.5151C71.2786 68.7081 64.0517 70.6892 57.8269 71.7687C51.7829 72.8169 46.6848 73.0159 45.1133 72.6495M99.2296 18.6911L99.2293 18.6887M104.845 23.0447C106.923 24.9755 108.743 27.0971 110.265 29.3722L110.267 29.3753M104.845 23.0447C105.242 27.3847 105.404 31.2613 105.18 34.8473C104.513 45.4768 100.443 53.5508 88.9908 63.5537C82.7901 68.9696 75.1862 73.0699 67.6301 75.2713C62.4798 76.7718 57.3517 77.3902 52.7054 76.9414M104.845 23.0447L104.844 23.043M110.267 29.3753C113.171 33.7148 114.984 38.6148 115.404 43.8276L115.404 43.8305M110.267 29.3753C111.417 40.6509 108.321 49.947 103.213 57.1094C101.184 59.9547 98.8381 62.4631 96.3148 64.6254C95.2572 65.5317 94.1688 66.3779 93.0592 67.1618C83.9218 73.6179 72.7674 78.8817 63.1104 80.1371C63.0621 80.1433 63.0136 80.1502 62.9654 80.1563M110.267 29.3753L110.267 29.3704M115.404 43.8305C115.466 44.6021 115.498 45.3805 115.498 46.165C115.498 62.9355 101.103 76.9447 81.8988 80.3322L81.7433 80.36M115.404 43.8305C114.859 47.9787 111.039 58.3716 101.624 67.47C95.5448 73.3453 83.8176 79.3233 81.9821 80.2413C81.843 80.3108 81.7621 80.3507 81.7433 80.36M115.404 43.8305L115.404 43.8268M81.7433 80.36C78.8918 80.8538 75.936 81.1154 72.9053 81.1154C69.4841 81.1154 66.1578 80.7825 62.9701 80.1571L62.9654 80.1563M81.7433 80.36L81.737 80.3631M62.9654 80.1563C59.344 79.4456 55.9016 78.3571 52.7054 76.9414M62.9654 80.1563L62.9584 80.1571M52.7054 76.9414L52.7049 76.9412C49.9828 75.7355 47.4385 74.294 45.1133 72.6495M52.7054 76.9414L52.7024 76.9412M45.1133 72.6495L45.1125 72.6489C42.7321 70.9652 40.5809 69.0692 38.703 66.9965M45.1133 72.6495L45.1108 72.6489M38.703 66.9965L38.7026 66.9961C37.4816 65.6482 36.3758 64.2261 35.398 62.7389M38.703 66.9965L38.7012 66.9961M35.398 62.7389L35.3977 62.7384C34.3386 61.1277 33.4305 59.4405 32.6857 57.6903M35.398 62.7389L35.3964 62.7384M32.6857 57.6903L32.6848 57.6879C31.8534 55.7338 31.2264 53.7014 30.8272 51.6067M32.6857 57.6903L32.6816 57.6879M30.8272 51.6067L30.827 51.6058C30.4893 49.8328 30.3124 48.0158 30.3124 46.165M30.8272 51.6067L30.8254 51.6058M30.8272 51.6067C30.8626 51.6242 33.436 52.888 37.5378 53.7901C39.5865 54.2405 42.0168 54.6002 44.7024 54.6695C47.291 54.7362 50.1172 54.5325 53.0686 53.8793C53.8497 53.7065 54.6394 53.5027 55.436 53.2635C62.789 51.0547 72.4176 46.9659 78.5316 37.2719C79.9406 35.0377 81.433 32.0285 82.0414 29.0519M30.3124 46.165C30.3124 43.6898 30.6269 41.2748 31.2238 38.9452M30.3124 46.165C30.3124 46.165 33.119 47.6274 37.6206 48.6645C39.1461 49.0158 40.8681 49.3169 42.7394 49.4971C45.16 49.7301 47.8324 49.7589 50.6656 49.4239C53.9581 49.0346 57.4665 48.151 61.0437 46.5302C65.4082 44.5527 69.8752 41.4761 74.178 36.8404M31.2238 38.9452L31.2236 38.945M31.2238 38.9452C31.2292 38.9518 34.0702 42.3643 40.5194 44.0171C42.184 44.4436 44.0894 44.7522 46.2478 44.8554C46.9149 44.8874 47.6064 44.8993 48.3222 44.8893C50.9133 44.853 53.828 44.5236 57.0834 43.7782C57.429 43.6991 57.7773 43.6168 58.1306 43.528C60.9765 42.8138 63.9628 41.7055 67.4337 39.805" stroke="#0E1939" stroke-width="2.66683" stroke-miterlimit="22.9256"/>
<path d="M50.6437 94.7983L52.9472 95.3766C52.5936 96.4369 52.0039 97.2236 51.1813 97.7391C50.3587 98.2525 49.3167 98.5103 48.0524 98.5103C46.4865 98.5103 45.2007 98.0732 44.1915 97.199C43.1851 96.3248 42.6805 95.13 42.6805 93.6126C42.6805 92.0098 43.1879 90.7635 44.1996 89.8758C45.2115 88.9883 46.5443 88.5444 48.1951 88.5444C49.6375 88.5444 50.8083 88.8941 51.7077 89.5912C52.2452 90.0037 52.6456 90.5955 52.9144 91.3688L50.5615 91.8261C50.4216 91.3285 50.1309 90.9339 49.6895 90.6447C49.2453 90.3556 48.7079 90.2121 48.0771 90.2121C47.2024 90.2121 46.4921 90.4676 45.9491 90.981C45.4035 91.4921 45.132 92.3215 45.132 93.469C45.132 94.684 45.4008 95.5514 45.9355 96.067C46.4729 96.5848 47.1695 96.8426 48.0277 96.8426C48.6612 96.8426 49.2068 96.6789 49.6621 96.3494C50.1173 96.02 50.4463 95.5044 50.6437 94.7983Z" fill="#11D3D3"/>
<path d="M54.9901 88.7192H59.7013C60.6364 88.7192 61.3301 88.7507 61.7881 88.8134C62.2488 88.8784 62.6575 89.0107 63.0193 89.2102C63.3813 89.4119 63.6829 89.6787 63.9243 90.0126C64.1656 90.3466 64.2862 90.7232 64.2862 91.1379C64.2862 91.5862 64.1383 92.0008 63.8421 92.3752C63.5459 92.7518 63.1428 93.0319 62.6355 93.2203C63.3511 93.3929 63.8996 93.6842 64.2862 94.0967C64.6702 94.5092 64.8621 94.9933 64.8621 95.5514C64.8621 95.9908 64.7388 96.4167 64.4892 96.8314C64.2396 97.246 63.8996 97.5778 63.4662 97.8267C63.0357 98.0732 62.5039 98.2256 61.8704 98.2839C61.4755 98.3175 60.5185 98.34 59.002 98.3489H54.9901V88.7192ZM57.376 90.3198V92.5389H58.9334C59.8576 92.5389 60.4334 92.5276 60.6584 92.5052C61.0641 92.4671 61.3851 92.3528 61.6181 92.1623C61.8512 91.9717 61.9662 91.7229 61.9662 91.4136C61.9662 91.1155 61.8648 90.8757 61.6646 90.6895C61.4645 90.5035 61.1657 90.3914 60.7706 90.3534C60.5349 90.3309 59.8576 90.3198 58.7416 90.3198H57.376ZM57.376 94.1393V96.7215H59.5806C60.4362 96.7215 60.9819 96.7014 61.2121 96.6632C61.566 96.6094 61.854 96.4817 62.076 96.2777C62.2981 96.0715 62.4106 95.8003 62.4106 95.4573C62.4106 95.1659 62.3256 94.9215 62.1528 94.7198C61.9828 94.5181 61.7333 94.3702 61.4097 94.2783C61.0861 94.1863 60.3813 94.1393 59.2983 94.1393H57.376Z" fill="#11D3D3"/>
<path d="M77.4844 98.3489H74.9149L73.8977 96.1567H69.1728L68.1939 98.3489H65.6711L70.245 88.7192H72.7652L77.4844 98.3489ZM73.1244 94.5293L71.4872 90.9653L69.8968 94.5293H73.1244Z" fill="#11D3D3"/>
<path d="M86.6297 98.3489V96.4123H81.8254V94.8051L86.9205 88.6789H88.818V94.7983H90.2824V96.4123H88.818V98.3489H86.6297ZM86.6297 94.7983V91.51L83.9369 94.7983H86.6297Z" fill="#11D3D3"/>
<path d="M91.8317 98.3489V96.5063H94.0859V98.3489H91.8317Z" fill="#11D3D3"/>
<path d="M99.7512 88.6656C100.892 88.6656 101.783 88.9994 102.428 89.6675C103.193 90.4565 103.577 91.7678 103.577 93.5969C103.577 95.4237 103.19 96.7373 102.419 97.5352C101.78 98.1942 100.892 98.5238 99.7512 98.5238C98.6051 98.5238 97.6809 98.1629 96.9789 97.441C96.2768 96.7193 95.9257 95.4304 95.9257 93.5789C95.9257 91.761 96.3124 90.4519 97.0831 89.654C97.7219 88.995 98.6104 88.6656 99.7512 88.6656ZM99.7512 90.1987C99.4825 90.1987 99.2412 90.2704 99.0327 90.4139C98.8216 90.5551 98.6571 90.8107 98.5419 91.1805C98.3884 91.6579 98.3116 92.4649 98.3116 93.5969C98.3116 94.7311 98.38 95.5089 98.5172 95.9325C98.6544 96.3562 98.8271 96.6386 99.0355 96.7798C99.2439 96.921 99.4825 96.9906 99.7512 96.9906C100.02 96.9906 100.261 96.9188 100.473 96.7754C100.681 96.6342 100.845 96.3786 100.961 96.0087C101.114 95.5357 101.191 94.7311 101.191 93.5969C101.191 92.4649 101.122 91.6871 100.985 91.2634C100.848 90.8398 100.675 90.5551 100.467 90.4139C100.259 90.2704 100.02 90.1987 99.7512 90.1987Z" fill="#11D3D3"/>
</svg>
