<svg width="876" height="1285" viewBox="0 0 876 1285" fill="none" xmlns="http://www.w3.org/2000/svg">
<path d="M27 0L30.4914 22.1944L52.6785 18.6565L32.6493 28.8356L42.8702 48.8435L27 32.94L11.1298 48.8435L21.3507 28.8356L1.32147 18.6565L23.5086 22.1944L27 0Z" fill="#2486A5"/>
<path d="M358 399L361.491 421.194L383.679 417.657L363.649 427.836L373.87 447.843L358 431.94L342.13 447.843L352.351 427.836L332.321 417.657L354.509 421.194L358 399Z" fill="#2DAFC1"/>
<path d="M849 398L852.491 420.194L874.679 416.657L854.649 426.836L864.87 446.843L849 430.94L833.13 446.843L843.351 426.836L823.321 416.657L845.509 420.194L849 398Z" fill="#2486A5"/>
<path d="M382 1136L385.491 1158.19L407.679 1154.66L387.649 1164.84L397.87 1184.84L382 1168.94L366.13 1184.84L376.351 1164.84L356.321 1154.66L378.509 1158.19L382 1136Z" fill="#2486A5"/>
<path d="M232 982L235.491 1004.19L257.679 1000.66L237.649 1010.84L247.87 1030.84L232 1014.94L216.13 1030.84L226.351 1010.84L206.321 1000.66L228.509 1004.19L232 982Z" fill="#0F2948"/>
<path d="M232 982L235.491 1004.19L257.679 1000.66L237.649 1010.84L247.87 1030.84L232 1014.94L216.13 1030.84L226.351 1010.84L206.321 1000.66L228.509 1004.19L232 982Z" fill="black" fill-opacity="0.2"/>
<path d="M232 982L235.491 1004.19L257.679 1000.66L237.649 1010.84L247.87 1030.84L232 1014.94L216.13 1030.84L226.351 1010.84L206.321 1000.66L228.509 1004.19L232 982Z" fill="black" fill-opacity="0.2"/>
<path d="M232 982L235.491 1004.19L257.679 1000.66L237.649 1010.84L247.87 1030.84L232 1014.94L216.13 1030.84L226.351 1010.84L206.321 1000.66L228.509 1004.19L232 982Z" fill="black" fill-opacity="0.2"/>
<path d="M232 982L235.491 1004.19L257.679 1000.66L237.649 1010.84L247.87 1030.84L232 1014.94L216.13 1030.84L226.351 1010.84L206.321 1000.66L228.509 1004.19L232 982Z" fill="black" fill-opacity="0.2"/>
<path d="M61 1231L64.4914 1253.19L86.6785 1249.66L66.6493 1259.84L76.8702 1279.84L61 1263.94L45.1298 1279.84L55.3507 1259.84L35.3215 1249.66L57.5086 1253.19L61 1231Z" fill="#2DAFC1"/>
<path d="M575 1177L578.491 1199.19L600.679 1195.66L580.649 1205.84L590.87 1225.84L575 1209.94L559.13 1225.84L569.351 1205.84L549.321 1195.66L571.509 1199.19L575 1177Z" fill="#0F2948"/>
<path d="M575 1177L578.491 1199.19L600.679 1195.66L580.649 1205.84L590.87 1225.84L575 1209.94L559.13 1225.84L569.351 1205.84L549.321 1195.66L571.509 1199.19L575 1177Z" fill="black" fill-opacity="0.2"/>
<path d="M575 1177L578.491 1199.19L600.679 1195.66L580.649 1205.84L590.87 1225.84L575 1209.94L559.13 1225.84L569.351 1205.84L549.321 1195.66L571.509 1199.19L575 1177Z" fill="black" fill-opacity="0.2"/>
<path d="M575 1177L578.491 1199.19L600.679 1195.66L580.649 1205.84L590.87 1225.84L575 1209.94L559.13 1225.84L569.351 1205.84L549.321 1195.66L571.509 1199.19L575 1177Z" fill="black" fill-opacity="0.2"/>
<path d="M575 1177L578.491 1199.19L600.679 1195.66L580.649 1205.84L590.87 1225.84L575 1209.94L559.13 1225.84L569.351 1205.84L549.321 1195.66L571.509 1199.19L575 1177Z" fill="black" fill-opacity="0.2"/>
<path d="M264 301L267.491 323.194L289.679 319.657L269.649 329.836L279.87 349.843L264 333.94L248.13 349.843L258.351 329.836L238.321 319.657L260.509 323.194L264 301Z" fill="#0F2948"/>
<path d="M264 301L267.491 323.194L289.679 319.657L269.649 329.836L279.87 349.843L264 333.94L248.13 349.843L258.351 329.836L238.321 319.657L260.509 323.194L264 301Z" fill="black" fill-opacity="0.2"/>
<path d="M264 301L267.491 323.194L289.679 319.657L269.649 329.836L279.87 349.843L264 333.94L248.13 349.843L258.351 329.836L238.321 319.657L260.509 323.194L264 301Z" fill="black" fill-opacity="0.2"/>
<path d="M264 301L267.491 323.194L289.679 319.657L269.649 329.836L279.87 349.843L264 333.94L248.13 349.843L258.351 329.836L238.321 319.657L260.509 323.194L264 301Z" fill="black" fill-opacity="0.2"/>
<path d="M264 301L267.491 323.194L289.679 319.657L269.649 329.836L279.87 349.843L264 333.94L248.13 349.843L258.351 329.836L238.321 319.657L260.509 323.194L264 301Z" fill="black" fill-opacity="0.2"/>
</svg>
