<svg width="81" height="115" viewBox="0 0 81 115" fill="none" xmlns="http://www.w3.org/2000/svg">
<path fill-rule="evenodd" clip-rule="evenodd" d="M2.20087 3.19231C3.03914 3.19231 3.71869 2.47769 3.71869 1.59615C3.71869 0.714622 3.03914 0 2.20087 0C1.3626 0 0.683044 0.714622 0.683044 1.59615C0.683044 2.47769 1.3626 3.19231 2.20087 3.19231ZM2.20087 19.1538C3.03914 19.1538 3.71869 18.4392 3.71869 17.5577C3.71869 16.6762 3.03914 15.9615 2.20087 15.9615C1.3626 15.9615 0.683044 16.6762 0.683044 17.5577C0.683044 18.4392 1.3626 19.1538 2.20087 19.1538ZM3.71869 33.5192C3.71869 34.4008 3.03914 35.1154 2.20087 35.1154C1.3626 35.1154 0.683044 34.4008 0.683044 33.5192C0.683044 32.6377 1.3626 31.9231 2.20087 31.9231C3.03914 31.9231 3.71869 32.6377 3.71869 33.5192ZM2.20087 51.0769C3.03914 51.0769 3.71869 50.3623 3.71869 49.4808C3.71869 48.5992 3.03914 47.8846 2.20087 47.8846C1.3626 47.8846 0.683044 48.5992 0.683044 49.4808C0.683044 50.3623 1.3626 51.0769 2.20087 51.0769ZM3.71869 65.4423C3.71869 66.3238 3.03914 67.0385 2.20087 67.0385C1.3626 67.0385 0.683044 66.3238 0.683044 65.4423C0.683044 64.5608 1.3626 63.8462 2.20087 63.8462C3.03914 63.8462 3.71869 64.5608 3.71869 65.4423ZM2.20087 83C3.03914 83 3.71869 82.2854 3.71869 81.4038C3.71869 80.5223 3.03914 79.8077 2.20087 79.8077C1.3626 79.8077 0.683044 80.5223 0.683044 81.4038C0.683044 82.2854 1.3626 83 2.20087 83ZM18.8969 1.59615C18.8969 2.47769 18.2174 3.19231 17.3791 3.19231C16.5408 3.19231 15.8613 2.47769 15.8613 1.59615C15.8613 0.714622 16.5408 0 17.3791 0C18.2174 0 18.8969 0.714622 18.8969 1.59615ZM17.3791 19.1538C18.2174 19.1538 18.8969 18.4392 18.8969 17.5577C18.8969 16.6762 18.2174 15.9615 17.3791 15.9615C16.5408 15.9615 15.8613 16.6762 15.8613 17.5577C15.8613 18.4392 16.5408 19.1538 17.3791 19.1538ZM18.8969 33.5192C18.8969 34.4008 18.2174 35.1154 17.3791 35.1154C16.5408 35.1154 15.8613 34.4008 15.8613 33.5192C15.8613 32.6377 16.5408 31.9231 17.3791 31.9231C18.2174 31.9231 18.8969 32.6377 18.8969 33.5192ZM17.3791 51.0769C18.2174 51.0769 18.8969 50.3623 18.8969 49.4808C18.8969 48.5992 18.2174 47.8846 17.3791 47.8846C16.5408 47.8846 15.8613 48.5992 15.8613 49.4808C15.8613 50.3623 16.5408 51.0769 17.3791 51.0769ZM18.8969 65.4423C18.8969 66.3238 18.2174 67.0385 17.3791 67.0385C16.5408 67.0385 15.8613 66.3238 15.8613 65.4423C15.8613 64.5608 16.5408 63.8462 17.3791 63.8462C18.2174 63.8462 18.8969 64.5608 18.8969 65.4423ZM17.3791 83C18.2174 83 18.8969 82.2854 18.8969 81.4038C18.8969 80.5223 18.2174 79.8077 17.3791 79.8077C16.5408 79.8077 15.8613 80.5223 15.8613 81.4038C15.8613 82.2854 16.5408 83 17.3791 83Z" fill="white"/>
<path fill-rule="evenodd" clip-rule="evenodd" d="M3.74327 113.417C3.74327 112.542 3.05822 111.833 2.21316 111.833C1.3681 111.833 0.683044 112.542 0.683044 113.417C0.683044 114.291 1.3681 115 2.21316 115C3.05822 115 3.74327 114.291 3.74327 113.417ZM19.0444 113.417C19.0444 112.542 18.3594 111.833 17.5143 111.833C16.6692 111.833 15.9842 112.542 15.9842 113.417C15.9842 114.291 16.6692 115 17.5143 115C18.3594 115 19.0444 114.291 19.0444 113.417ZM32.8154 111.833C33.6605 111.833 34.3455 112.542 34.3455 113.417C34.3455 114.291 33.6605 115 32.8154 115C31.9704 115 31.2853 114.291 31.2853 113.417C31.2853 112.542 31.9704 111.833 32.8154 111.833ZM49.6467 113.417C49.6467 112.542 48.9616 111.833 48.1166 111.833C47.2715 111.833 46.5865 112.542 46.5865 113.417C46.5865 114.291 47.2715 115 48.1166 115C48.9616 115 49.6467 114.291 49.6467 113.417ZM63.4177 111.833C64.2628 111.833 64.9478 112.542 64.9478 113.417C64.9478 114.291 64.2628 115 63.4177 115C62.5727 115 61.8876 114.291 61.8876 113.417C61.8876 112.542 62.5727 111.833 63.4177 111.833ZM80.249 113.417C80.249 112.542 79.5639 111.833 78.7188 111.833C77.8738 111.833 77.1887 112.542 77.1887 113.417C77.1887 114.291 77.8738 115 78.7188 115C79.5639 115 80.249 114.291 80.249 113.417ZM2.21316 96C3.05822 96 3.74327 96.7089 3.74327 97.5833C3.74327 98.4578 3.05822 99.1667 2.21316 99.1667C1.3681 99.1667 0.683044 98.4578 0.683044 97.5833C0.683044 96.7089 1.3681 96 2.21316 96ZM19.0444 97.5833C19.0444 96.7089 18.3594 96 17.5143 96C16.6692 96 15.9842 96.7089 15.9842 97.5833C15.9842 98.4578 16.6692 99.1667 17.5143 99.1667C18.3594 99.1667 19.0444 98.4578 19.0444 97.5833ZM32.8154 96C33.6605 96 34.3455 96.7089 34.3455 97.5833C34.3455 98.4578 33.6605 99.1667 32.8154 99.1667C31.9704 99.1667 31.2853 98.4578 31.2853 97.5833C31.2853 96.7089 31.9704 96 32.8154 96ZM49.6467 97.5833C49.6467 96.7089 48.9616 96 48.1166 96C47.2715 96 46.5865 96.7089 46.5865 97.5833C46.5865 98.4578 47.2715 99.1667 48.1166 99.1667C48.9616 99.1667 49.6467 98.4578 49.6467 97.5833ZM63.4177 96C64.2628 96 64.9478 96.7089 64.9478 97.5833C64.9478 98.4578 64.2628 99.1667 63.4177 99.1667C62.5727 99.1667 61.8876 98.4578 61.8876 97.5833C61.8876 96.7089 62.5727 96 63.4177 96ZM80.249 97.5833C80.249 96.7089 79.5639 96 78.7188 96C77.8738 96 77.1887 96.7089 77.1887 97.5833C77.1887 98.4578 77.8738 99.1667 78.7188 99.1667C79.5639 99.1667 80.249 98.4578 80.249 97.5833Z" fill="white"/>
</svg>
