<svg width="44" height="54" viewBox="0 0 44 54" fill="none" xmlns="http://www.w3.org/2000/svg">
<path d="M14 40.3333H22M0.666626 5.66665V48.3333C0.666626 49.7478 1.22853 51.1044 2.22872 52.1045C3.22892 53.1047 4.58547 53.6666 5.99996 53.6666H38C39.4144 53.6666 40.771 53.1047 41.7712 52.1045C42.7714 51.1044 43.3333 49.7478 43.3333 48.3333V17.2453C43.3332 16.5348 43.1912 15.8315 42.9155 15.1766C42.6398 14.5218 42.2361 13.9286 41.728 13.432L29.888 1.85331C28.8916 0.879067 27.5535 0.333486 26.16 0.333313H5.99996C4.58547 0.333313 3.22892 0.895216 2.22872 1.89541C1.22853 2.8956 0.666626 4.25216 0.666626 5.66665V5.66665ZM14 29.6666H30H14Z" stroke="#2486A5" stroke-width="2.5" stroke-linecap="round" stroke-linejoin="round"/>
<path d="M27.3333 0.333313V11C27.3333 12.4145 27.8952 13.771 28.8954 14.7712C29.8956 15.7714 31.2522 16.3333 32.6666 16.3333H43.3333" stroke="#2486A5" stroke-width="2.5" stroke-linejoin="round"/>
</svg>
