<svg width="14" height="14" viewBox="0 0 14 14" fill="none" xmlns="http://www.w3.org/2000/svg">
<path fill-rule="evenodd" clip-rule="evenodd" d="M3.12408 13.618H0.211426V5.30283H3.12408V13.618Z" fill="white"/>
<path fill-rule="evenodd" clip-rule="evenodd" d="M1.65909 3.45499H1.64255C0.773348 3.45499 0.211426 2.83875 0.211426 2.06862C0.211426 1.28219 0.790462 0.683197 1.67616 0.683197C2.56185 0.683197 3.10728 1.28219 3.12408 2.06862C3.12408 2.83875 2.56185 3.45499 1.65909 3.45499Z" fill="white"/>
<path fill-rule="evenodd" clip-rule="evenodd" d="M13.8038 13.6178H10.9417V9.27136C10.9417 8.17962 10.5275 7.43465 9.49135 7.43465C8.7006 7.43465 8.2296 7.93687 8.02274 8.42194C7.94706 8.59578 7.92849 8.83799 7.92849 9.0808V13.618H5.06592C5.06592 13.618 5.10364 6.25615 5.06592 5.49381H7.92849V6.64454C8.30837 6.09137 8.98874 5.30283 10.5084 5.30283C12.3919 5.30283 13.8039 6.46423 13.8039 8.95964L13.8038 13.6178Z" fill="white"/>
</svg>
