<svg width="54" height="54" viewBox="0 0 54 54" fill="none" xmlns="http://www.w3.org/2000/svg">
<path d="M13.6667 26.1259V40.3333H27.8741L24.9111 37.3704H16.6297V29.0889L13.6667 26.1259Z" fill="#2486A5"/>
<path d="M51.9926 48.1703L47.7407 43.8592V47.7407H6.25925V41.5925H9.22222V39.2222H6.25925V29.3703H9.22222V27H6.25925V17.5185H9.22222V15.1481H6.25925V6.86662L29.8741 30.3481V26.1703L5.82962 2.2444C5.62241 2.03547 5.35767 1.89298 5.06915 1.8351C4.78064 1.77721 4.48142 1.80656 4.20965 1.9194C3.93788 2.03224 3.70587 2.22346 3.5432 2.46867C3.38054 2.71389 3.29458 3.00199 3.29629 3.29625V49.2222C3.29629 49.6151 3.45237 49.9919 3.73021 50.2697C4.00804 50.5476 4.38486 50.7037 4.77777 50.7037H50.9407C51.235 50.7054 51.5231 50.6194 51.7683 50.4567C52.0135 50.2941 52.2047 50.0621 52.3176 49.7903C52.4304 49.5185 52.4598 49.2193 52.4019 48.9308C52.344 48.6423 52.2015 48.3775 51.9926 48.1703Z" fill="#2486A5"/>
<path d="M35.8889 44.7777H41.8149C42.6007 44.7777 43.3543 44.4656 43.91 43.9099C44.4656 43.3542 44.7778 42.6006 44.7778 41.8148V13.2222L41.3704 6.95552C41.1069 6.49896 40.7263 6.12097 40.268 5.86055C39.8096 5.60013 39.2901 5.4667 38.763 5.47404C38.224 5.47832 37.6963 5.62957 37.2368 5.91151C36.7774 6.19345 36.4035 6.59539 36.1556 7.07404L32.926 13.2518V41.8148C32.926 42.6006 33.2381 43.3542 33.7938 43.9099C34.3495 44.4656 35.1031 44.7777 35.8889 44.7777ZM35.8889 13.9629L38.763 8.37775L41.8149 13.9777V35.8889H35.8889V13.9629ZM35.8889 38.3037H41.8149V41.9185H35.8889V38.3037Z" fill="#2486A5"/>
</svg>
