<svg width="15" height="16" viewBox="0 0 15 16" fill="none" xmlns="http://www.w3.org/2000/svg">
<g clip-path="url(#clip0_46_198)">
<path fill-rule="evenodd" clip-rule="evenodd" d="M15.0004 1.12463C15.0004 0.958873 14.9346 0.799902 14.8174 0.682692C14.7002 0.565482 14.5412 0.499634 14.3754 0.499634H6.87542C6.70966 0.499634 6.55069 0.565482 6.43348 0.682692C6.31627 0.799902 6.25042 0.958873 6.25042 1.12463C6.25042 1.29039 6.31627 1.44937 6.43348 1.56658C6.55069 1.68379 6.70966 1.74963 6.87542 1.74963H12.8667L0.182923 14.4321C0.124813 14.4902 0.0787181 14.5592 0.0472692 14.6352C0.0158204 14.7111 -0.000366211 14.7925 -0.000366211 14.8746C-0.000366211 14.9568 0.0158204 15.0382 0.0472692 15.1141C0.0787181 15.19 0.124813 15.259 0.182923 15.3171C0.241033 15.3752 0.31002 15.4213 0.385944 15.4528C0.461868 15.4842 0.543243 15.5004 0.625423 15.5004C0.707603 15.5004 0.788978 15.4842 0.864902 15.4528C0.940827 15.4213 1.00981 15.3752 1.06792 15.3171L13.7504 2.63338V8.62463C13.7504 8.79039 13.8163 8.94937 13.9335 9.06658C14.0507 9.18379 14.2097 9.24963 14.3754 9.24963C14.5412 9.24963 14.7002 9.18379 14.8174 9.06658C14.9346 8.94937 15.0004 8.79039 15.0004 8.62463V1.12463Z" fill="white"/>
</g>
<defs>
<clipPath id="clip0_46_198">
<rect width="15.0008" height="15.0008" fill="white" transform="translate(-0.000366211 0.499634)"/>
</clipPath>
</defs>
</svg>
