<svg width="901" height="1576" viewBox="0 0 901 1576" fill="none" xmlns="http://www.w3.org/2000/svg">
<path d="M880.122 166.985C890.128 164.442 897.699 155.8 898.649 145.25H887.441C887.023 153.231 884.39 160.656 880.122 166.985ZM898.649 140.75C897.699 130.197 890.121 121.553 880.113 119.01C884.384 125.342 887.021 132.767 887.441 140.75H898.649ZM867.889 119.01C857.877 121.553 850.303 130.197 849.349 140.75H860.558C860.979 132.767 863.616 125.342 867.889 119.01ZM849.351 145.25C849.819 150.342 851.85 155.164 855.167 159.056C858.484 162.947 862.924 165.717 867.878 166.985C863.61 160.656 860.977 153.231 860.558 145.25H849.351ZM874 167.664C868.809 161.398 865.558 153.667 865.067 145.25H882.935C882.44 153.665 879.191 161.398 874.002 167.664M874 118.347C879.191 124.611 882.438 132.339 882.932 140.75H865.067C865.562 132.339 868.812 124.611 874 118.347Z" fill="#2DAFC1"/>
<path d="M316.122 642.985C326.128 640.442 333.699 631.8 334.649 621.25H323.441C323.023 629.231 320.391 636.656 316.122 642.985ZM334.649 616.75C333.699 606.197 326.121 597.553 316.113 595.01C320.384 601.342 323.021 608.767 323.441 616.75H334.649ZM303.889 595.01C293.877 597.553 286.303 606.197 285.349 616.75H296.558C296.979 608.767 299.616 601.342 303.889 595.01ZM285.351 621.25C285.819 626.342 287.85 631.164 291.167 635.056C294.484 638.947 298.924 641.717 303.878 642.985C299.61 636.656 296.977 629.231 296.558 621.25H285.351ZM310 643.664C304.809 637.398 301.558 629.667 301.067 621.25H318.935C318.44 629.665 315.191 637.398 310.002 643.664M310 594.347C315.191 600.611 318.438 608.339 318.932 616.75H301.067C301.562 608.339 304.812 600.611 310 594.347Z" fill="#2486A5"/>
<path d="M314.122 1367.98C324.128 1365.44 331.699 1356.8 332.649 1346.25H321.441C321.023 1354.23 318.391 1361.66 314.122 1367.98ZM332.649 1341.75C331.699 1331.2 324.121 1322.55 314.113 1320.01C318.384 1326.34 321.021 1333.77 321.441 1341.75H332.649ZM301.889 1320.01C291.877 1322.55 284.303 1331.2 283.349 1341.75H294.558C294.979 1333.77 297.616 1326.34 301.889 1320.01ZM283.351 1346.25C283.819 1351.34 285.85 1356.16 289.167 1360.06C292.484 1363.95 296.924 1366.72 301.878 1367.98C297.61 1361.66 294.977 1354.23 294.558 1346.25H283.351ZM308 1368.66C302.809 1362.4 299.558 1354.67 299.067 1346.25H316.935C316.44 1354.66 313.191 1362.4 308.002 1368.66M308 1319.35C313.191 1325.61 316.438 1333.34 316.932 1341.75H299.067C299.562 1333.34 302.812 1325.61 308 1319.35Z" fill="#0F2948"/>
<path d="M314.122 1367.98C324.128 1365.44 331.699 1356.8 332.649 1346.25H321.441C321.023 1354.23 318.391 1361.66 314.122 1367.98ZM332.649 1341.75C331.699 1331.2 324.121 1322.55 314.113 1320.01C318.384 1326.34 321.021 1333.77 321.441 1341.75H332.649ZM301.889 1320.01C291.877 1322.55 284.303 1331.2 283.349 1341.75H294.558C294.979 1333.77 297.616 1326.34 301.889 1320.01ZM283.351 1346.25C283.819 1351.34 285.85 1356.16 289.167 1360.06C292.484 1363.95 296.924 1366.72 301.878 1367.98C297.61 1361.66 294.977 1354.23 294.558 1346.25H283.351ZM308 1368.66C302.809 1362.4 299.558 1354.67 299.067 1346.25H316.935C316.44 1354.66 313.191 1362.4 308.002 1368.66M308 1319.35C313.191 1325.61 316.438 1333.34 316.932 1341.75H299.067C299.562 1333.34 302.812 1325.61 308 1319.35Z" fill="black" fill-opacity="0.2"/>
<path d="M314.122 1367.98C324.128 1365.44 331.699 1356.8 332.649 1346.25H321.441C321.023 1354.23 318.391 1361.66 314.122 1367.98ZM332.649 1341.75C331.699 1331.2 324.121 1322.55 314.113 1320.01C318.384 1326.34 321.021 1333.77 321.441 1341.75H332.649ZM301.889 1320.01C291.877 1322.55 284.303 1331.2 283.349 1341.75H294.558C294.979 1333.77 297.616 1326.34 301.889 1320.01ZM283.351 1346.25C283.819 1351.34 285.85 1356.16 289.167 1360.06C292.484 1363.95 296.924 1366.72 301.878 1367.98C297.61 1361.66 294.977 1354.23 294.558 1346.25H283.351ZM308 1368.66C302.809 1362.4 299.558 1354.67 299.067 1346.25H316.935C316.44 1354.66 313.191 1362.4 308.002 1368.66M308 1319.35C313.191 1325.61 316.438 1333.34 316.932 1341.75H299.067C299.562 1333.34 302.812 1325.61 308 1319.35Z" fill="black" fill-opacity="0.2"/>
<path d="M314.122 1367.98C324.128 1365.44 331.699 1356.8 332.649 1346.25H321.441C321.023 1354.23 318.391 1361.66 314.122 1367.98ZM332.649 1341.75C331.699 1331.2 324.121 1322.55 314.113 1320.01C318.384 1326.34 321.021 1333.77 321.441 1341.75H332.649ZM301.889 1320.01C291.877 1322.55 284.303 1331.2 283.349 1341.75H294.558C294.979 1333.77 297.616 1326.34 301.889 1320.01ZM283.351 1346.25C283.819 1351.34 285.85 1356.16 289.167 1360.06C292.484 1363.95 296.924 1366.72 301.878 1367.98C297.61 1361.66 294.977 1354.23 294.558 1346.25H283.351ZM308 1368.66C302.809 1362.4 299.558 1354.67 299.067 1346.25H316.935C316.44 1354.66 313.191 1362.4 308.002 1368.66M308 1319.35C313.191 1325.61 316.438 1333.34 316.932 1341.75H299.067C299.562 1333.34 302.812 1325.61 308 1319.35Z" fill="black" fill-opacity="0.2"/>
<path d="M314.122 1367.98C324.128 1365.44 331.699 1356.8 332.649 1346.25H321.441C321.023 1354.23 318.391 1361.66 314.122 1367.98ZM332.649 1341.75C331.699 1331.2 324.121 1322.55 314.113 1320.01C318.384 1326.34 321.021 1333.77 321.441 1341.75H332.649ZM301.889 1320.01C291.877 1322.55 284.303 1331.2 283.349 1341.75H294.558C294.979 1333.77 297.616 1326.34 301.889 1320.01ZM283.351 1346.25C283.819 1351.34 285.85 1356.16 289.167 1360.06C292.484 1363.95 296.924 1366.72 301.878 1367.98C297.61 1361.66 294.977 1354.23 294.558 1346.25H283.351ZM308 1368.66C302.809 1362.4 299.558 1354.67 299.067 1346.25H316.935C316.44 1354.66 313.191 1362.4 308.002 1368.66M308 1319.35C313.191 1325.61 316.438 1333.34 316.932 1341.75H299.067C299.562 1333.34 302.812 1325.61 308 1319.35Z" fill="black" fill-opacity="0.2"/>
<path d="M33.1222 1572.98C43.128 1570.44 50.6992 1561.8 51.6487 1551.25H40.4415C40.023 1559.23 37.3905 1566.66 33.1222 1572.98ZM51.6487 1546.75C50.6992 1536.2 43.1213 1527.55 33.1133 1525.01C37.3838 1531.34 40.0207 1538.77 40.4415 1546.75H51.6487ZM20.889 1525.01C10.8765 1527.55 3.303 1536.2 2.349 1546.75H13.5585C13.9792 1538.77 16.6163 1531.34 20.889 1525.01ZM2.35125 1551.25C2.81855 1556.34 4.85009 1561.16 8.16711 1565.06C11.4841 1568.95 15.9241 1571.72 20.8778 1572.98C16.6095 1566.66 13.977 1559.23 13.5585 1551.25H2.35125ZM27 1573.66C21.8092 1567.4 18.558 1559.67 18.0675 1551.25H35.9347C35.4398 1559.66 32.1908 1567.4 27.0023 1573.66M27 1524.35C32.1908 1530.61 35.4375 1538.34 35.9325 1546.75H18.0675C18.5625 1538.34 21.8115 1530.61 27 1524.35Z" fill="#2DAFC1"/>
<path d="M612.122 1558.98C622.128 1556.44 629.699 1547.8 630.649 1537.25H619.441C619.023 1545.23 616.39 1552.66 612.122 1558.98ZM630.649 1532.75C629.699 1522.2 622.121 1513.55 612.113 1511.01C616.384 1517.34 619.021 1524.77 619.441 1532.75H630.649ZM599.889 1511.01C589.877 1513.55 582.303 1522.2 581.349 1532.75H592.558C592.979 1524.77 595.616 1517.34 599.889 1511.01ZM581.351 1537.25C581.819 1542.34 583.85 1547.16 587.167 1551.06C590.484 1554.95 594.924 1557.72 599.878 1558.98C595.61 1552.66 592.977 1545.23 592.558 1537.25H581.351ZM606 1559.66C600.809 1553.4 597.558 1545.67 597.067 1537.25H614.935C614.44 1545.66 611.191 1553.4 606.002 1559.66M606 1510.35C611.191 1516.61 614.438 1524.34 614.932 1532.75H597.067C597.562 1524.34 600.812 1516.61 606 1510.35Z" fill="#2DAFC1"/>
<path d="M808.122 50.9849C818.128 48.4424 825.699 39.8002 826.649 29.2499H815.441C815.023 37.2307 812.39 44.6557 808.122 50.9849ZM826.649 24.7499C825.699 14.1974 818.121 5.55293 808.113 3.01043C812.384 9.34193 815.021 16.7669 815.441 24.7499H826.649ZM795.889 3.01043C785.877 5.55293 778.303 14.1974 777.349 24.7499H788.558C788.979 16.7669 791.616 9.34193 795.889 3.01043ZM777.351 29.2499C777.819 34.3419 779.85 39.1644 783.167 43.0559C786.484 46.9474 790.924 49.7171 795.878 50.9849C791.61 44.6557 788.977 37.2307 788.558 29.2499H777.351ZM802 51.6644C796.809 45.3982 793.558 37.6672 793.067 29.2499H810.935C810.44 37.6649 807.191 45.3982 802.002 51.6644M802 2.34668C807.191 8.61068 810.438 16.3394 810.932 24.7499H793.067C793.562 16.3394 796.812 8.61068 802 2.34668Z" fill="#2486A5"/>
</svg>
