<svg width="23" height="23" viewBox="0 0 23 23" fill="none" xmlns="http://www.w3.org/2000/svg">
<path d="M3.03152 8.28222L11.3137 22.6274L19.5959 8.28222L18.5705 8.28222L11.3137 20.8513L4.05695 8.28222L3.03152 8.28222Z" fill="#0F2948"/>
<path d="M3.03152 8.28222L11.3137 22.6274L19.5959 8.28222L18.5705 8.28222L11.3137 20.8513L4.05695 8.28222L3.03152 8.28222Z" fill="black" fill-opacity="0.2"/>
<path d="M3.03152 8.28222L11.3137 22.6274L19.5959 8.28222L18.5705 8.28222L11.3137 20.8513L4.05695 8.28222L3.03152 8.28222Z" fill="black" fill-opacity="0.2"/>
<path d="M3.03152 8.28222L11.3137 22.6274L19.5959 8.28222L18.5705 8.28222L11.3137 20.8513L4.05695 8.28222L3.03152 8.28222Z" fill="black" fill-opacity="0.2"/>
<path d="M3.03152 8.28222L11.3137 22.6274L19.5959 8.28222L18.5705 8.28222L11.3137 20.8513L4.05695 8.28222L3.03152 8.28222Z" fill="black" fill-opacity="0.2"/>
<path d="M5.26388 8.28222L11.3137 18.7609L17.3636 8.28222L5.26388 8.28222Z" fill="#0F2948"/>
<path d="M5.26388 8.28222L11.3137 18.7609L17.3636 8.28222L5.26388 8.28222Z" fill="black" fill-opacity="0.2"/>
<path d="M5.26388 8.28222L11.3137 18.7609L17.3636 8.28222L5.26388 8.28222Z" fill="black" fill-opacity="0.2"/>
<path d="M5.26388 8.28222L11.3137 18.7609L17.3636 8.28222L5.26388 8.28222Z" fill="black" fill-opacity="0.2"/>
<path d="M5.26388 8.28222L11.3137 18.7609L17.3636 8.28222L5.26388 8.28222Z" fill="black" fill-opacity="0.2"/>
</svg>
