<svg width="107" height="107" viewBox="0 0 107 107" fill="none" xmlns="http://www.w3.org/2000/svg">
<path d="M74.2899 106.556C73.9496 106.708 73.6074 106.856 73.2635 107L33.5225 107C33.1786 106.856 32.8365 106.708 32.4961 106.556L74.2899 106.556Z" fill="white"/>
<path d="M82.2868 102.116C82.0651 102.266 81.8423 102.414 81.6183 102.56L25.1677 102.56C24.9437 102.414 24.7209 102.266 24.4992 102.116L82.2868 102.116Z" fill="white"/>
<path d="M87.9902 97.6763C87.8232 97.8254 87.6553 97.9734 87.4865 98.1203L19.2995 98.1203C19.1307 97.9734 18.9628 97.8254 18.7958 97.6763L87.9902 97.6763Z" fill="white"/>
<path d="M92.4226 93.2365C92.2902 93.3853 92.157 93.5333 92.0231 93.6805L14.7629 93.6805C14.629 93.5333 14.4959 93.3853 14.3635 93.2365L92.4226 93.2365Z" fill="white"/>
<path d="M95.9813 88.7967C95.8742 88.9453 95.7665 89.0933 95.6581 89.2407L11.128 89.2407C11.0195 89.0932 10.9118 88.9452 10.8048 88.7967L95.9813 88.7967Z" fill="white"/>
<path d="M98.8697 84.3568C98.7828 84.5053 98.6953 84.6533 98.6072 84.8008L8.17886 84.8008C8.09071 84.6533 8.0032 84.5053 7.91635 84.3568L98.8697 84.3568Z" fill="white"/>
<path d="M101.207 79.917C101.137 80.0654 101.067 80.2134 100.996 80.361L5.79022 80.361C5.71916 80.2134 5.6487 80.0654 5.57886 79.917L101.207 79.917Z" fill="white"/>
<path d="M103.07 75.4772C103.015 75.6255 102.959 75.7735 102.903 75.9212L3.88269 75.9212C3.82659 75.7735 3.77109 75.6255 3.71618 75.4772L103.07 75.4772Z" fill="white"/>
<path d="M104.509 71.0373C104.467 71.1856 104.425 71.3336 104.383 71.4813L2.40328 71.4813C2.36074 71.3336 2.31877 71.1856 2.27738 71.0373L104.509 71.0373Z" fill="white"/>
<path d="M105.559 66.5975C105.53 66.7457 105.5 66.8937 105.47 67.0415L1.31564 67.0415C1.28565 66.8937 1.25623 66.7457 1.22737 66.5975L105.559 66.5975Z" fill="white"/>
<path d="M106.244 62.1577C106.227 62.3059 106.21 62.4538 106.191 62.6017L0.594555 62.6017C0.576435 62.4538 0.558887 62.3058 0.541889 62.1577L106.244 62.1577Z" fill="white"/>
<path d="M106.582 57.7178C106.576 57.866 106.57 58.014 106.563 58.1618L0.222813 58.1618C0.216114 58.014 0.209973 57.866 0.20438 57.7178L106.582 57.7178Z" fill="white"/>
<path d="M106.582 53.278C106.587 53.4259 106.592 53.5739 106.597 53.722L0.189305 53.722C0.193768 53.5738 0.198804 53.4258 0.204381 53.278L106.582 53.278Z" fill="white"/>
<path d="M106.244 48.8382C106.261 48.986 106.278 49.134 106.293 49.2822L0.492704 49.2822C0.508542 49.134 0.524938 48.986 0.54189 48.8382L106.244 48.8382Z" fill="white"/>
<path d="M105.559 44.3983C105.587 44.5461 105.616 44.6941 105.643 44.8423L1.14275 44.8423C1.17039 44.6941 1.19861 44.5461 1.22738 44.3983L105.559 44.3983Z" fill="white"/>
<path d="M104.509 39.9585C104.55 40.1063 104.591 40.2542 104.631 40.4025L2.15536 40.4025C2.19546 40.2542 2.23613 40.1062 2.27738 39.9585L104.509 39.9585Z" fill="white"/>
<path d="M103.07 35.5187C103.125 35.6664 103.179 35.8144 103.232 35.9627L3.55392 35.9627C3.60742 35.8144 3.66151 35.6664 3.71618 35.5187L103.07 35.5187Z" fill="white"/>
<path d="M101.207 31.0788C101.277 31.2265 101.346 31.3745 101.414 31.5228L5.37222 31.5228C5.44049 31.3745 5.50938 31.2265 5.57886 31.0788L101.207 31.0788Z" fill="white"/>
<path d="M98.8697 26.639C98.956 26.7866 99.0417 26.9345 99.1267 27.083L7.65933 27.083C7.74436 26.9345 7.83004 26.7865 7.91636 26.639L98.8697 26.639Z" fill="white"/>
<path d="M95.9813 22.1992C96.0875 22.3466 96.193 22.4946 96.2979 22.6432L10.4882 22.6431C10.593 22.4946 10.6986 22.3466 10.8048 22.1992L95.9813 22.1992Z" fill="white"/>
<path d="M92.4226 17.7593C92.5536 17.9066 92.6839 18.0546 92.8134 18.2033L13.9726 18.2033C14.1022 18.0546 14.2324 17.9066 14.3635 17.7593L92.4226 17.7593Z" fill="white"/>
<path d="M87.9902 13.3195C88.1549 13.4665 88.3187 13.6145 88.4817 13.7635L18.3044 13.7635C18.4673 13.6145 18.6311 13.4665 18.7958 13.3195L87.9902 13.3195Z" fill="white"/>
<path d="M82.2868 8.87967C82.5037 9.02608 82.7195 9.17407 82.9341 9.32365L23.8519 9.32365C24.0666 9.17406 24.2824 9.02607 24.4992 8.87967L82.2868 8.87967Z" fill="white"/>
<path d="M74.2899 4.43984C74.6148 4.58458 74.9381 4.73259 75.2596 4.88382L31.5264 4.88382C31.848 4.73258 32.1712 4.58457 32.4961 4.43984L74.2899 4.43984Z" fill="white"/>
<path d="M46.6278 0.443987C48.8433 0.151003 51.1012 2.56843e-06 53.393 2.77743e-06C55.6848 2.98643e-06 57.9428 0.151004 60.1583 0.443988L46.6278 0.443987Z" fill="white"/>
</svg>
