<svg width="112" height="16" viewBox="0 0 112 16" fill="none" xmlns="http://www.w3.org/2000/svg">
<g clip-path="url(#clip0_9_307)">
<path d="M0.518208 6.40331C0.518157 6.40326 0.518106 6.40321 0.518055 6.40316C0.508648 6.39414 0.504999 6.38631 0.50304 6.378C0.500572 6.36754 0.500474 6.35324 0.504935 6.33826C0.509414 6.32323 0.516155 6.31512 0.518984 6.3125C0.519083 6.31241 0.519171 6.31232 0.51926 6.31223C0.519917 6.31154 0.520588 6.31085 0.525606 6.31014L0.526339 6.31004L5.42434 5.61404L5.68275 5.57732L5.80036 5.34431L7.98429 1.01745C7.98833 1.00946 7.99173 1.00532 7.9934 1.00352C7.99511 1.00167 7.99622 1.00095 7.99666 1.00068C7.99757 1.00013 7.99912 0.999512 8.0015 0.999512C8.00387 0.999512 8.00543 1.00013 8.00633 1.00068C8.00677 1.00094 8.00788 1.00167 8.00959 1.00352C8.01126 1.00532 8.01467 1.00946 8.0187 1.01745L10.2026 5.34431L10.3202 5.57732L10.5787 5.61404L15.4767 6.31004L15.4774 6.31014C15.4824 6.31085 15.4831 6.31154 15.4837 6.3122C15.4838 6.31229 15.4839 6.31238 15.484 6.31246C15.4867 6.31504 15.4934 6.32307 15.4978 6.33797C15.5023 6.35282 15.5021 6.36698 15.4997 6.37735C15.4977 6.38559 15.4941 6.39354 15.4843 6.40279L15.4841 6.40303L11.9621 9.75903L11.7682 9.94372L11.8145 10.2074L12.6445 14.9374L12.6446 14.9377C12.6479 14.9567 12.6451 14.9681 12.6424 14.975C12.6391 14.9835 12.6335 14.9907 12.6273 14.9956C12.6249 14.9975 12.623 14.9986 12.6217 14.9993C12.621 14.999 12.6202 14.9986 12.6193 14.9982C12.6193 14.9982 12.6192 14.9981 12.6192 14.9981L8.22849 12.7423L7.99994 12.6249L7.77142 12.7423L3.38242 14.9983L3.38252 14.9988C3.38208 14.999 3.38168 14.9991 3.38132 14.9993C3.37997 14.9986 3.37805 14.9975 3.37569 14.9956C3.36952 14.9907 3.36394 14.9835 3.3606 14.975C3.35787 14.9681 3.35508 14.9567 3.35842 14.9377L3.35847 14.9374L4.18847 10.2074L4.23475 9.94368L4.04086 9.75898L0.518208 6.40331Z" fill="white"/>
<path d="M0.518208 6.40331C0.518157 6.40326 0.518106 6.40321 0.518055 6.40316C0.508648 6.39414 0.504999 6.38631 0.50304 6.378C0.500572 6.36754 0.500474 6.35324 0.504935 6.33826C0.509414 6.32323 0.516155 6.31512 0.518984 6.3125C0.519083 6.31241 0.519171 6.31232 0.51926 6.31223C0.519917 6.31154 0.520588 6.31085 0.525606 6.31014L0.526339 6.31004L5.42434 5.61404L5.68275 5.57732L5.80036 5.34431L7.98429 1.01745C7.98833 1.00946 7.99173 1.00532 7.9934 1.00352C7.99511 1.00167 7.99622 1.00095 7.99666 1.00068C7.99757 1.00013 7.99912 0.999512 8.0015 0.999512C8.00387 0.999512 8.00543 1.00013 8.00633 1.00068C8.00677 1.00094 8.00788 1.00167 8.00959 1.00352C8.01126 1.00532 8.01467 1.00946 8.0187 1.01745L10.2026 5.34431L10.3202 5.57732L10.5787 5.61404L15.4767 6.31004L15.4774 6.31014C15.4824 6.31085 15.4831 6.31154 15.4837 6.3122C15.4838 6.31229 15.4839 6.31238 15.484 6.31246C15.4867 6.31504 15.4934 6.32307 15.4978 6.33797C15.5023 6.35282 15.5021 6.36698 15.4997 6.37735C15.4977 6.38559 15.4941 6.39354 15.4843 6.40279L15.4841 6.40303L11.9621 9.75903L11.7682 9.94372L11.8145 10.2074L12.6445 14.9374L12.6446 14.9377C12.6479 14.9567 12.6451 14.9681 12.6424 14.975C12.6391 14.9835 12.6335 14.9907 12.6273 14.9956C12.6249 14.9975 12.623 14.9986 12.6217 14.9993C12.621 14.999 12.6202 14.9986 12.6193 14.9982C12.6193 14.9982 12.6192 14.9981 12.6192 14.9981L8.22849 12.7423L7.99994 12.6249L7.77142 12.7423L3.38242 14.9983L3.38252 14.9988C3.38208 14.999 3.38168 14.9991 3.38132 14.9993C3.37997 14.9986 3.37805 14.9975 3.37569 14.9956C3.36952 14.9907 3.36394 14.9835 3.3606 14.975C3.35787 14.9681 3.35508 14.9567 3.35842 14.9377L3.35847 14.9374L4.18847 10.2074L4.23475 9.94368L4.04086 9.75898L0.518208 6.40331Z" stroke="#0F2948"/>
<path d="M0.518208 6.40331C0.518157 6.40326 0.518106 6.40321 0.518055 6.40316C0.508648 6.39414 0.504999 6.38631 0.50304 6.378C0.500572 6.36754 0.500474 6.35324 0.504935 6.33826C0.509414 6.32323 0.516155 6.31512 0.518984 6.3125C0.519083 6.31241 0.519171 6.31232 0.51926 6.31223C0.519917 6.31154 0.520588 6.31085 0.525606 6.31014L0.526339 6.31004L5.42434 5.61404L5.68275 5.57732L5.80036 5.34431L7.98429 1.01745C7.98833 1.00946 7.99173 1.00532 7.9934 1.00352C7.99511 1.00167 7.99622 1.00095 7.99666 1.00068C7.99757 1.00013 7.99912 0.999512 8.0015 0.999512C8.00387 0.999512 8.00543 1.00013 8.00633 1.00068C8.00677 1.00094 8.00788 1.00167 8.00959 1.00352C8.01126 1.00532 8.01467 1.00946 8.0187 1.01745L10.2026 5.34431L10.3202 5.57732L10.5787 5.61404L15.4767 6.31004L15.4774 6.31014C15.4824 6.31085 15.4831 6.31154 15.4837 6.3122C15.4838 6.31229 15.4839 6.31238 15.484 6.31246C15.4867 6.31504 15.4934 6.32307 15.4978 6.33797C15.5023 6.35282 15.5021 6.36698 15.4997 6.37735C15.4977 6.38559 15.4941 6.39354 15.4843 6.40279L15.4841 6.40303L11.9621 9.75903L11.7682 9.94372L11.8145 10.2074L12.6445 14.9374L12.6446 14.9377C12.6479 14.9567 12.6451 14.9681 12.6424 14.975C12.6391 14.9835 12.6335 14.9907 12.6273 14.9956C12.6249 14.9975 12.623 14.9986 12.6217 14.9993C12.621 14.999 12.6202 14.9986 12.6193 14.9982C12.6193 14.9982 12.6192 14.9981 12.6192 14.9981L8.22849 12.7423L7.99994 12.6249L7.77142 12.7423L3.38242 14.9983L3.38252 14.9988C3.38208 14.999 3.38168 14.9991 3.38132 14.9993C3.37997 14.9986 3.37805 14.9975 3.37569 14.9956C3.36952 14.9907 3.36394 14.9835 3.3606 14.975C3.35787 14.9681 3.35508 14.9567 3.35842 14.9377L3.35847 14.9374L4.18847 10.2074L4.23475 9.94368L4.04086 9.75898L0.518208 6.40331Z" stroke="black" stroke-opacity="0.2"/>
<path d="M0.518208 6.40331C0.518157 6.40326 0.518106 6.40321 0.518055 6.40316C0.508648 6.39414 0.504999 6.38631 0.50304 6.378C0.500572 6.36754 0.500474 6.35324 0.504935 6.33826C0.509414 6.32323 0.516155 6.31512 0.518984 6.3125C0.519083 6.31241 0.519171 6.31232 0.51926 6.31223C0.519917 6.31154 0.520588 6.31085 0.525606 6.31014L0.526339 6.31004L5.42434 5.61404L5.68275 5.57732L5.80036 5.34431L7.98429 1.01745C7.98833 1.00946 7.99173 1.00532 7.9934 1.00352C7.99511 1.00167 7.99622 1.00095 7.99666 1.00068C7.99757 1.00013 7.99912 0.999512 8.0015 0.999512C8.00387 0.999512 8.00543 1.00013 8.00633 1.00068C8.00677 1.00094 8.00788 1.00167 8.00959 1.00352C8.01126 1.00532 8.01467 1.00946 8.0187 1.01745L10.2026 5.34431L10.3202 5.57732L10.5787 5.61404L15.4767 6.31004L15.4774 6.31014C15.4824 6.31085 15.4831 6.31154 15.4837 6.3122C15.4838 6.31229 15.4839 6.31238 15.484 6.31246C15.4867 6.31504 15.4934 6.32307 15.4978 6.33797C15.5023 6.35282 15.5021 6.36698 15.4997 6.37735C15.4977 6.38559 15.4941 6.39354 15.4843 6.40279L15.4841 6.40303L11.9621 9.75903L11.7682 9.94372L11.8145 10.2074L12.6445 14.9374L12.6446 14.9377C12.6479 14.9567 12.6451 14.9681 12.6424 14.975C12.6391 14.9835 12.6335 14.9907 12.6273 14.9956C12.6249 14.9975 12.623 14.9986 12.6217 14.9993C12.621 14.999 12.6202 14.9986 12.6193 14.9982C12.6193 14.9982 12.6192 14.9981 12.6192 14.9981L8.22849 12.7423L7.99994 12.6249L7.77142 12.7423L3.38242 14.9983L3.38252 14.9988C3.38208 14.999 3.38168 14.9991 3.38132 14.9993C3.37997 14.9986 3.37805 14.9975 3.37569 14.9956C3.36952 14.9907 3.36394 14.9835 3.3606 14.975C3.35787 14.9681 3.35508 14.9567 3.35842 14.9377L3.35847 14.9374L4.18847 10.2074L4.23475 9.94368L4.04086 9.75898L0.518208 6.40331Z" stroke="black" stroke-opacity="0.2"/>
<path d="M0.518208 6.40331C0.518157 6.40326 0.518106 6.40321 0.518055 6.40316C0.508648 6.39414 0.504999 6.38631 0.50304 6.378C0.500572 6.36754 0.500474 6.35324 0.504935 6.33826C0.509414 6.32323 0.516155 6.31512 0.518984 6.3125C0.519083 6.31241 0.519171 6.31232 0.51926 6.31223C0.519917 6.31154 0.520588 6.31085 0.525606 6.31014L0.526339 6.31004L5.42434 5.61404L5.68275 5.57732L5.80036 5.34431L7.98429 1.01745C7.98833 1.00946 7.99173 1.00532 7.9934 1.00352C7.99511 1.00167 7.99622 1.00095 7.99666 1.00068C7.99757 1.00013 7.99912 0.999512 8.0015 0.999512C8.00387 0.999512 8.00543 1.00013 8.00633 1.00068C8.00677 1.00094 8.00788 1.00167 8.00959 1.00352C8.01126 1.00532 8.01467 1.00946 8.0187 1.01745L10.2026 5.34431L10.3202 5.57732L10.5787 5.61404L15.4767 6.31004L15.4774 6.31014C15.4824 6.31085 15.4831 6.31154 15.4837 6.3122C15.4838 6.31229 15.4839 6.31238 15.484 6.31246C15.4867 6.31504 15.4934 6.32307 15.4978 6.33797C15.5023 6.35282 15.5021 6.36698 15.4997 6.37735C15.4977 6.38559 15.4941 6.39354 15.4843 6.40279L15.4841 6.40303L11.9621 9.75903L11.7682 9.94372L11.8145 10.2074L12.6445 14.9374L12.6446 14.9377C12.6479 14.9567 12.6451 14.9681 12.6424 14.975C12.6391 14.9835 12.6335 14.9907 12.6273 14.9956C12.6249 14.9975 12.623 14.9986 12.6217 14.9993C12.621 14.999 12.6202 14.9986 12.6193 14.9982C12.6193 14.9982 12.6192 14.9981 12.6192 14.9981L8.22849 12.7423L7.99994 12.6249L7.77142 12.7423L3.38242 14.9983L3.38252 14.9988C3.38208 14.999 3.38168 14.9991 3.38132 14.9993C3.37997 14.9986 3.37805 14.9975 3.37569 14.9956C3.36952 14.9907 3.36394 14.9835 3.3606 14.975C3.35787 14.9681 3.35508 14.9567 3.35842 14.9377L3.35847 14.9374L4.18847 10.2074L4.23475 9.94368L4.04086 9.75898L0.518208 6.40331Z" stroke="black" stroke-opacity="0.2"/>
<path d="M0.518208 6.40331C0.518157 6.40326 0.518106 6.40321 0.518055 6.40316C0.508648 6.39414 0.504999 6.38631 0.50304 6.378C0.500572 6.36754 0.500474 6.35324 0.504935 6.33826C0.509414 6.32323 0.516155 6.31512 0.518984 6.3125C0.519083 6.31241 0.519171 6.31232 0.51926 6.31223C0.519917 6.31154 0.520588 6.31085 0.525606 6.31014L0.526339 6.31004L5.42434 5.61404L5.68275 5.57732L5.80036 5.34431L7.98429 1.01745C7.98833 1.00946 7.99173 1.00532 7.9934 1.00352C7.99511 1.00167 7.99622 1.00095 7.99666 1.00068C7.99757 1.00013 7.99912 0.999512 8.0015 0.999512C8.00387 0.999512 8.00543 1.00013 8.00633 1.00068C8.00677 1.00094 8.00788 1.00167 8.00959 1.00352C8.01126 1.00532 8.01467 1.00946 8.0187 1.01745L10.2026 5.34431L10.3202 5.57732L10.5787 5.61404L15.4767 6.31004L15.4774 6.31014C15.4824 6.31085 15.4831 6.31154 15.4837 6.3122C15.4838 6.31229 15.4839 6.31238 15.484 6.31246C15.4867 6.31504 15.4934 6.32307 15.4978 6.33797C15.5023 6.35282 15.5021 6.36698 15.4997 6.37735C15.4977 6.38559 15.4941 6.39354 15.4843 6.40279L15.4841 6.40303L11.9621 9.75903L11.7682 9.94372L11.8145 10.2074L12.6445 14.9374L12.6446 14.9377C12.6479 14.9567 12.6451 14.9681 12.6424 14.975C12.6391 14.9835 12.6335 14.9907 12.6273 14.9956C12.6249 14.9975 12.623 14.9986 12.6217 14.9993C12.621 14.999 12.6202 14.9986 12.6193 14.9982C12.6193 14.9982 12.6192 14.9981 12.6192 14.9981L8.22849 12.7423L7.99994 12.6249L7.77142 12.7423L3.38242 14.9983L3.38252 14.9988C3.38208 14.999 3.38168 14.9991 3.38132 14.9993C3.37997 14.9986 3.37805 14.9975 3.37569 14.9956C3.36952 14.9907 3.36394 14.9835 3.3606 14.975C3.35787 14.9681 3.35508 14.9567 3.35842 14.9377L3.35847 14.9374L4.18847 10.2074L4.23475 9.94368L4.04086 9.75898L0.518208 6.40331Z" stroke="black" stroke-opacity="0.2"/>
</g>
<g clip-path="url(#clip1_9_307)">
<path d="M24.5182 6.40331C24.5182 6.40326 24.5181 6.40321 24.5181 6.40316C24.5086 6.39414 24.505 6.38631 24.503 6.378C24.5006 6.36754 24.5005 6.35324 24.5049 6.33826C24.5094 6.32323 24.5162 6.31512 24.519 6.3125C24.5191 6.31241 24.5192 6.31232 24.5193 6.31223C24.5199 6.31154 24.5206 6.31085 24.5256 6.31014L24.5263 6.31004L29.4243 5.61404L29.6828 5.57732L29.8004 5.34431L31.9843 1.01745C31.9883 1.00946 31.9917 1.00532 31.9934 1.00352C31.9951 1.00167 31.9962 1.00095 31.9967 1.00068C31.9976 1.00013 31.9991 0.999512 32.0015 0.999512C32.0039 0.999512 32.0054 1.00013 32.0063 1.00068C32.0068 1.00094 32.0079 1.00167 32.0096 1.00352C32.0113 1.00532 32.0147 1.00946 32.0187 1.01745L34.2026 5.34431L34.3202 5.57732L34.5787 5.61404L39.4767 6.31004L39.4774 6.31014C39.4824 6.31085 39.4831 6.31154 39.4837 6.3122C39.4838 6.31229 39.4839 6.31238 39.484 6.31246C39.4867 6.31504 39.4934 6.32307 39.4978 6.33797C39.5023 6.35282 39.5021 6.36698 39.4997 6.37735C39.4977 6.38559 39.4941 6.39354 39.4843 6.40279L39.4841 6.40303L35.9621 9.75903L35.7682 9.94372L35.8145 10.2074L36.6445 14.9374L36.6446 14.9377C36.6479 14.9567 36.6451 14.9681 36.6424 14.975C36.6391 14.9835 36.6335 14.9907 36.6273 14.9956C36.6249 14.9975 36.623 14.9986 36.6217 14.9993C36.621 14.999 36.6202 14.9986 36.6193 14.9982C36.6193 14.9982 36.6192 14.9981 36.6192 14.9981L32.2285 12.7423L31.9999 12.6249L31.7714 12.7423L27.3824 14.9983L27.3825 14.9988C27.3821 14.999 27.3817 14.9991 27.3813 14.9993C27.38 14.9986 27.378 14.9975 27.3757 14.9956C27.3695 14.9907 27.3639 14.9835 27.3606 14.975C27.3579 14.9681 27.3551 14.9567 27.3584 14.9377L27.3585 14.9374L28.1885 10.2074L28.2348 9.94368L28.0409 9.75898L24.5182 6.40331Z" fill="white"/>
<path d="M24.5182 6.40331C24.5182 6.40326 24.5181 6.40321 24.5181 6.40316C24.5086 6.39414 24.505 6.38631 24.503 6.378C24.5006 6.36754 24.5005 6.35324 24.5049 6.33826C24.5094 6.32323 24.5162 6.31512 24.519 6.3125C24.5191 6.31241 24.5192 6.31232 24.5193 6.31223C24.5199 6.31154 24.5206 6.31085 24.5256 6.31014L24.5263 6.31004L29.4243 5.61404L29.6828 5.57732L29.8004 5.34431L31.9843 1.01745C31.9883 1.00946 31.9917 1.00532 31.9934 1.00352C31.9951 1.00167 31.9962 1.00095 31.9967 1.00068C31.9976 1.00013 31.9991 0.999512 32.0015 0.999512C32.0039 0.999512 32.0054 1.00013 32.0063 1.00068C32.0068 1.00094 32.0079 1.00167 32.0096 1.00352C32.0113 1.00532 32.0147 1.00946 32.0187 1.01745L34.2026 5.34431L34.3202 5.57732L34.5787 5.61404L39.4767 6.31004L39.4774 6.31014C39.4824 6.31085 39.4831 6.31154 39.4837 6.3122C39.4838 6.31229 39.4839 6.31238 39.484 6.31246C39.4867 6.31504 39.4934 6.32307 39.4978 6.33797C39.5023 6.35282 39.5021 6.36698 39.4997 6.37735C39.4977 6.38559 39.4941 6.39354 39.4843 6.40279L39.4841 6.40303L35.9621 9.75903L35.7682 9.94372L35.8145 10.2074L36.6445 14.9374L36.6446 14.9377C36.6479 14.9567 36.6451 14.9681 36.6424 14.975C36.6391 14.9835 36.6335 14.9907 36.6273 14.9956C36.6249 14.9975 36.623 14.9986 36.6217 14.9993C36.621 14.999 36.6202 14.9986 36.6193 14.9982C36.6193 14.9982 36.6192 14.9981 36.6192 14.9981L32.2285 12.7423L31.9999 12.6249L31.7714 12.7423L27.3824 14.9983L27.3825 14.9988C27.3821 14.999 27.3817 14.9991 27.3813 14.9993C27.38 14.9986 27.378 14.9975 27.3757 14.9956C27.3695 14.9907 27.3639 14.9835 27.3606 14.975C27.3579 14.9681 27.3551 14.9567 27.3584 14.9377L27.3585 14.9374L28.1885 10.2074L28.2348 9.94368L28.0409 9.75898L24.5182 6.40331Z" stroke="#0F2948"/>
<path d="M24.5182 6.40331C24.5182 6.40326 24.5181 6.40321 24.5181 6.40316C24.5086 6.39414 24.505 6.38631 24.503 6.378C24.5006 6.36754 24.5005 6.35324 24.5049 6.33826C24.5094 6.32323 24.5162 6.31512 24.519 6.3125C24.5191 6.31241 24.5192 6.31232 24.5193 6.31223C24.5199 6.31154 24.5206 6.31085 24.5256 6.31014L24.5263 6.31004L29.4243 5.61404L29.6828 5.57732L29.8004 5.34431L31.9843 1.01745C31.9883 1.00946 31.9917 1.00532 31.9934 1.00352C31.9951 1.00167 31.9962 1.00095 31.9967 1.00068C31.9976 1.00013 31.9991 0.999512 32.0015 0.999512C32.0039 0.999512 32.0054 1.00013 32.0063 1.00068C32.0068 1.00094 32.0079 1.00167 32.0096 1.00352C32.0113 1.00532 32.0147 1.00946 32.0187 1.01745L34.2026 5.34431L34.3202 5.57732L34.5787 5.61404L39.4767 6.31004L39.4774 6.31014C39.4824 6.31085 39.4831 6.31154 39.4837 6.3122C39.4838 6.31229 39.4839 6.31238 39.484 6.31246C39.4867 6.31504 39.4934 6.32307 39.4978 6.33797C39.5023 6.35282 39.5021 6.36698 39.4997 6.37735C39.4977 6.38559 39.4941 6.39354 39.4843 6.40279L39.4841 6.40303L35.9621 9.75903L35.7682 9.94372L35.8145 10.2074L36.6445 14.9374L36.6446 14.9377C36.6479 14.9567 36.6451 14.9681 36.6424 14.975C36.6391 14.9835 36.6335 14.9907 36.6273 14.9956C36.6249 14.9975 36.623 14.9986 36.6217 14.9993C36.621 14.999 36.6202 14.9986 36.6193 14.9982C36.6193 14.9982 36.6192 14.9981 36.6192 14.9981L32.2285 12.7423L31.9999 12.6249L31.7714 12.7423L27.3824 14.9983L27.3825 14.9988C27.3821 14.999 27.3817 14.9991 27.3813 14.9993C27.38 14.9986 27.378 14.9975 27.3757 14.9956C27.3695 14.9907 27.3639 14.9835 27.3606 14.975C27.3579 14.9681 27.3551 14.9567 27.3584 14.9377L27.3585 14.9374L28.1885 10.2074L28.2348 9.94368L28.0409 9.75898L24.5182 6.40331Z" stroke="black" stroke-opacity="0.2"/>
<path d="M24.5182 6.40331C24.5182 6.40326 24.5181 6.40321 24.5181 6.40316C24.5086 6.39414 24.505 6.38631 24.503 6.378C24.5006 6.36754 24.5005 6.35324 24.5049 6.33826C24.5094 6.32323 24.5162 6.31512 24.519 6.3125C24.5191 6.31241 24.5192 6.31232 24.5193 6.31223C24.5199 6.31154 24.5206 6.31085 24.5256 6.31014L24.5263 6.31004L29.4243 5.61404L29.6828 5.57732L29.8004 5.34431L31.9843 1.01745C31.9883 1.00946 31.9917 1.00532 31.9934 1.00352C31.9951 1.00167 31.9962 1.00095 31.9967 1.00068C31.9976 1.00013 31.9991 0.999512 32.0015 0.999512C32.0039 0.999512 32.0054 1.00013 32.0063 1.00068C32.0068 1.00094 32.0079 1.00167 32.0096 1.00352C32.0113 1.00532 32.0147 1.00946 32.0187 1.01745L34.2026 5.34431L34.3202 5.57732L34.5787 5.61404L39.4767 6.31004L39.4774 6.31014C39.4824 6.31085 39.4831 6.31154 39.4837 6.3122C39.4838 6.31229 39.4839 6.31238 39.484 6.31246C39.4867 6.31504 39.4934 6.32307 39.4978 6.33797C39.5023 6.35282 39.5021 6.36698 39.4997 6.37735C39.4977 6.38559 39.4941 6.39354 39.4843 6.40279L39.4841 6.40303L35.9621 9.75903L35.7682 9.94372L35.8145 10.2074L36.6445 14.9374L36.6446 14.9377C36.6479 14.9567 36.6451 14.9681 36.6424 14.975C36.6391 14.9835 36.6335 14.9907 36.6273 14.9956C36.6249 14.9975 36.623 14.9986 36.6217 14.9993C36.621 14.999 36.6202 14.9986 36.6193 14.9982C36.6193 14.9982 36.6192 14.9981 36.6192 14.9981L32.2285 12.7423L31.9999 12.6249L31.7714 12.7423L27.3824 14.9983L27.3825 14.9988C27.3821 14.999 27.3817 14.9991 27.3813 14.9993C27.38 14.9986 27.378 14.9975 27.3757 14.9956C27.3695 14.9907 27.3639 14.9835 27.3606 14.975C27.3579 14.9681 27.3551 14.9567 27.3584 14.9377L27.3585 14.9374L28.1885 10.2074L28.2348 9.94368L28.0409 9.75898L24.5182 6.40331Z" stroke="black" stroke-opacity="0.2"/>
<path d="M24.5182 6.40331C24.5182 6.40326 24.5181 6.40321 24.5181 6.40316C24.5086 6.39414 24.505 6.38631 24.503 6.378C24.5006 6.36754 24.5005 6.35324 24.5049 6.33826C24.5094 6.32323 24.5162 6.31512 24.519 6.3125C24.5191 6.31241 24.5192 6.31232 24.5193 6.31223C24.5199 6.31154 24.5206 6.31085 24.5256 6.31014L24.5263 6.31004L29.4243 5.61404L29.6828 5.57732L29.8004 5.34431L31.9843 1.01745C31.9883 1.00946 31.9917 1.00532 31.9934 1.00352C31.9951 1.00167 31.9962 1.00095 31.9967 1.00068C31.9976 1.00013 31.9991 0.999512 32.0015 0.999512C32.0039 0.999512 32.0054 1.00013 32.0063 1.00068C32.0068 1.00094 32.0079 1.00167 32.0096 1.00352C32.0113 1.00532 32.0147 1.00946 32.0187 1.01745L34.2026 5.34431L34.3202 5.57732L34.5787 5.61404L39.4767 6.31004L39.4774 6.31014C39.4824 6.31085 39.4831 6.31154 39.4837 6.3122C39.4838 6.31229 39.4839 6.31238 39.484 6.31246C39.4867 6.31504 39.4934 6.32307 39.4978 6.33797C39.5023 6.35282 39.5021 6.36698 39.4997 6.37735C39.4977 6.38559 39.4941 6.39354 39.4843 6.40279L39.4841 6.40303L35.9621 9.75903L35.7682 9.94372L35.8145 10.2074L36.6445 14.9374L36.6446 14.9377C36.6479 14.9567 36.6451 14.9681 36.6424 14.975C36.6391 14.9835 36.6335 14.9907 36.6273 14.9956C36.6249 14.9975 36.623 14.9986 36.6217 14.9993C36.621 14.999 36.6202 14.9986 36.6193 14.9982C36.6193 14.9982 36.6192 14.9981 36.6192 14.9981L32.2285 12.7423L31.9999 12.6249L31.7714 12.7423L27.3824 14.9983L27.3825 14.9988C27.3821 14.999 27.3817 14.9991 27.3813 14.9993C27.38 14.9986 27.378 14.9975 27.3757 14.9956C27.3695 14.9907 27.3639 14.9835 27.3606 14.975C27.3579 14.9681 27.3551 14.9567 27.3584 14.9377L27.3585 14.9374L28.1885 10.2074L28.2348 9.94368L28.0409 9.75898L24.5182 6.40331Z" stroke="black" stroke-opacity="0.2"/>
<path d="M24.5182 6.40331C24.5182 6.40326 24.5181 6.40321 24.5181 6.40316C24.5086 6.39414 24.505 6.38631 24.503 6.378C24.5006 6.36754 24.5005 6.35324 24.5049 6.33826C24.5094 6.32323 24.5162 6.31512 24.519 6.3125C24.5191 6.31241 24.5192 6.31232 24.5193 6.31223C24.5199 6.31154 24.5206 6.31085 24.5256 6.31014L24.5263 6.31004L29.4243 5.61404L29.6828 5.57732L29.8004 5.34431L31.9843 1.01745C31.9883 1.00946 31.9917 1.00532 31.9934 1.00352C31.9951 1.00167 31.9962 1.00095 31.9967 1.00068C31.9976 1.00013 31.9991 0.999512 32.0015 0.999512C32.0039 0.999512 32.0054 1.00013 32.0063 1.00068C32.0068 1.00094 32.0079 1.00167 32.0096 1.00352C32.0113 1.00532 32.0147 1.00946 32.0187 1.01745L34.2026 5.34431L34.3202 5.57732L34.5787 5.61404L39.4767 6.31004L39.4774 6.31014C39.4824 6.31085 39.4831 6.31154 39.4837 6.3122C39.4838 6.31229 39.4839 6.31238 39.484 6.31246C39.4867 6.31504 39.4934 6.32307 39.4978 6.33797C39.5023 6.35282 39.5021 6.36698 39.4997 6.37735C39.4977 6.38559 39.4941 6.39354 39.4843 6.40279L39.4841 6.40303L35.9621 9.75903L35.7682 9.94372L35.8145 10.2074L36.6445 14.9374L36.6446 14.9377C36.6479 14.9567 36.6451 14.9681 36.6424 14.975C36.6391 14.9835 36.6335 14.9907 36.6273 14.9956C36.6249 14.9975 36.623 14.9986 36.6217 14.9993C36.621 14.999 36.6202 14.9986 36.6193 14.9982C36.6193 14.9982 36.6192 14.9981 36.6192 14.9981L32.2285 12.7423L31.9999 12.6249L31.7714 12.7423L27.3824 14.9983L27.3825 14.9988C27.3821 14.999 27.3817 14.9991 27.3813 14.9993C27.38 14.9986 27.378 14.9975 27.3757 14.9956C27.3695 14.9907 27.3639 14.9835 27.3606 14.975C27.3579 14.9681 27.3551 14.9567 27.3584 14.9377L27.3585 14.9374L28.1885 10.2074L28.2348 9.94368L28.0409 9.75898L24.5182 6.40331Z" stroke="black" stroke-opacity="0.2"/>
</g>
<g clip-path="url(#clip2_9_307)">
<path d="M48.5182 6.40331C48.5182 6.40326 48.5181 6.40321 48.5181 6.40316C48.5086 6.39414 48.505 6.38631 48.503 6.378C48.5006 6.36754 48.5005 6.35324 48.5049 6.33826C48.5094 6.32323 48.5162 6.31512 48.519 6.3125C48.5191 6.31241 48.5192 6.31232 48.5193 6.31223C48.5199 6.31154 48.5206 6.31085 48.5256 6.31014L48.5263 6.31004L53.4243 5.61404L53.6828 5.57732L53.8004 5.34431L55.9843 1.01745C55.9883 1.00946 55.9917 1.00532 55.9934 1.00352C55.9951 1.00167 55.9962 1.00095 55.9967 1.00068C55.9976 1.00013 55.9991 0.999512 56.0015 0.999512C56.0039 0.999512 56.0054 1.00013 56.0063 1.00068C56.0068 1.00094 56.0079 1.00167 56.0096 1.00352C56.0113 1.00532 56.0147 1.00946 56.0187 1.01745L58.2026 5.34431L58.3202 5.57732L58.5787 5.61404L63.4767 6.31004L63.4774 6.31014C63.4824 6.31085 63.4831 6.31154 63.4837 6.3122C63.4838 6.31229 63.4839 6.31238 63.484 6.31246C63.4867 6.31504 63.4934 6.32307 63.4978 6.33797C63.5023 6.35282 63.5021 6.36698 63.4997 6.37735C63.4977 6.38559 63.4941 6.39354 63.4843 6.40279L63.4841 6.40303L59.9621 9.75903L59.7682 9.94372L59.8145 10.2074L60.6445 14.9374L60.6446 14.9377C60.6479 14.9567 60.6451 14.9681 60.6424 14.975C60.6391 14.9835 60.6335 14.9907 60.6273 14.9956C60.6249 14.9975 60.623 14.9986 60.6217 14.9993C60.621 14.999 60.6202 14.9986 60.6193 14.9982C60.6193 14.9982 60.6192 14.9981 60.6192 14.9981L56.2285 12.7423L55.9999 12.6249L55.7714 12.7423L51.3824 14.9983L51.3825 14.9988C51.3821 14.999 51.3817 14.9991 51.3813 14.9993C51.38 14.9986 51.378 14.9975 51.3757 14.9956C51.3695 14.9907 51.3639 14.9835 51.3606 14.975C51.3579 14.9681 51.3551 14.9567 51.3584 14.9377L51.3585 14.9374L52.1885 10.2074L52.2348 9.94368L52.0409 9.75898L48.5182 6.40331Z" fill="white"/>
<path d="M48.5182 6.40331C48.5182 6.40326 48.5181 6.40321 48.5181 6.40316C48.5086 6.39414 48.505 6.38631 48.503 6.378C48.5006 6.36754 48.5005 6.35324 48.5049 6.33826C48.5094 6.32323 48.5162 6.31512 48.519 6.3125C48.5191 6.31241 48.5192 6.31232 48.5193 6.31223C48.5199 6.31154 48.5206 6.31085 48.5256 6.31014L48.5263 6.31004L53.4243 5.61404L53.6828 5.57732L53.8004 5.34431L55.9843 1.01745C55.9883 1.00946 55.9917 1.00532 55.9934 1.00352C55.9951 1.00167 55.9962 1.00095 55.9967 1.00068C55.9976 1.00013 55.9991 0.999512 56.0015 0.999512C56.0039 0.999512 56.0054 1.00013 56.0063 1.00068C56.0068 1.00094 56.0079 1.00167 56.0096 1.00352C56.0113 1.00532 56.0147 1.00946 56.0187 1.01745L58.2026 5.34431L58.3202 5.57732L58.5787 5.61404L63.4767 6.31004L63.4774 6.31014C63.4824 6.31085 63.4831 6.31154 63.4837 6.3122C63.4838 6.31229 63.4839 6.31238 63.484 6.31246C63.4867 6.31504 63.4934 6.32307 63.4978 6.33797C63.5023 6.35282 63.5021 6.36698 63.4997 6.37735C63.4977 6.38559 63.4941 6.39354 63.4843 6.40279L63.4841 6.40303L59.9621 9.75903L59.7682 9.94372L59.8145 10.2074L60.6445 14.9374L60.6446 14.9377C60.6479 14.9567 60.6451 14.9681 60.6424 14.975C60.6391 14.9835 60.6335 14.9907 60.6273 14.9956C60.6249 14.9975 60.623 14.9986 60.6217 14.9993C60.621 14.999 60.6202 14.9986 60.6193 14.9982C60.6193 14.9982 60.6192 14.9981 60.6192 14.9981L56.2285 12.7423L55.9999 12.6249L55.7714 12.7423L51.3824 14.9983L51.3825 14.9988C51.3821 14.999 51.3817 14.9991 51.3813 14.9993C51.38 14.9986 51.378 14.9975 51.3757 14.9956C51.3695 14.9907 51.3639 14.9835 51.3606 14.975C51.3579 14.9681 51.3551 14.9567 51.3584 14.9377L51.3585 14.9374L52.1885 10.2074L52.2348 9.94368L52.0409 9.75898L48.5182 6.40331Z" stroke="#0F2948"/>
<path d="M48.5182 6.40331C48.5182 6.40326 48.5181 6.40321 48.5181 6.40316C48.5086 6.39414 48.505 6.38631 48.503 6.378C48.5006 6.36754 48.5005 6.35324 48.5049 6.33826C48.5094 6.32323 48.5162 6.31512 48.519 6.3125C48.5191 6.31241 48.5192 6.31232 48.5193 6.31223C48.5199 6.31154 48.5206 6.31085 48.5256 6.31014L48.5263 6.31004L53.4243 5.61404L53.6828 5.57732L53.8004 5.34431L55.9843 1.01745C55.9883 1.00946 55.9917 1.00532 55.9934 1.00352C55.9951 1.00167 55.9962 1.00095 55.9967 1.00068C55.9976 1.00013 55.9991 0.999512 56.0015 0.999512C56.0039 0.999512 56.0054 1.00013 56.0063 1.00068C56.0068 1.00094 56.0079 1.00167 56.0096 1.00352C56.0113 1.00532 56.0147 1.00946 56.0187 1.01745L58.2026 5.34431L58.3202 5.57732L58.5787 5.61404L63.4767 6.31004L63.4774 6.31014C63.4824 6.31085 63.4831 6.31154 63.4837 6.3122C63.4838 6.31229 63.4839 6.31238 63.484 6.31246C63.4867 6.31504 63.4934 6.32307 63.4978 6.33797C63.5023 6.35282 63.5021 6.36698 63.4997 6.37735C63.4977 6.38559 63.4941 6.39354 63.4843 6.40279L63.4841 6.40303L59.9621 9.75903L59.7682 9.94372L59.8145 10.2074L60.6445 14.9374L60.6446 14.9377C60.6479 14.9567 60.6451 14.9681 60.6424 14.975C60.6391 14.9835 60.6335 14.9907 60.6273 14.9956C60.6249 14.9975 60.623 14.9986 60.6217 14.9993C60.621 14.999 60.6202 14.9986 60.6193 14.9982C60.6193 14.9982 60.6192 14.9981 60.6192 14.9981L56.2285 12.7423L55.9999 12.6249L55.7714 12.7423L51.3824 14.9983L51.3825 14.9988C51.3821 14.999 51.3817 14.9991 51.3813 14.9993C51.38 14.9986 51.378 14.9975 51.3757 14.9956C51.3695 14.9907 51.3639 14.9835 51.3606 14.975C51.3579 14.9681 51.3551 14.9567 51.3584 14.9377L51.3585 14.9374L52.1885 10.2074L52.2348 9.94368L52.0409 9.75898L48.5182 6.40331Z" stroke="black" stroke-opacity="0.2"/>
<path d="M48.5182 6.40331C48.5182 6.40326 48.5181 6.40321 48.5181 6.40316C48.5086 6.39414 48.505 6.38631 48.503 6.378C48.5006 6.36754 48.5005 6.35324 48.5049 6.33826C48.5094 6.32323 48.5162 6.31512 48.519 6.3125C48.5191 6.31241 48.5192 6.31232 48.5193 6.31223C48.5199 6.31154 48.5206 6.31085 48.5256 6.31014L48.5263 6.31004L53.4243 5.61404L53.6828 5.57732L53.8004 5.34431L55.9843 1.01745C55.9883 1.00946 55.9917 1.00532 55.9934 1.00352C55.9951 1.00167 55.9962 1.00095 55.9967 1.00068C55.9976 1.00013 55.9991 0.999512 56.0015 0.999512C56.0039 0.999512 56.0054 1.00013 56.0063 1.00068C56.0068 1.00094 56.0079 1.00167 56.0096 1.00352C56.0113 1.00532 56.0147 1.00946 56.0187 1.01745L58.2026 5.34431L58.3202 5.57732L58.5787 5.61404L63.4767 6.31004L63.4774 6.31014C63.4824 6.31085 63.4831 6.31154 63.4837 6.3122C63.4838 6.31229 63.4839 6.31238 63.484 6.31246C63.4867 6.31504 63.4934 6.32307 63.4978 6.33797C63.5023 6.35282 63.5021 6.36698 63.4997 6.37735C63.4977 6.38559 63.4941 6.39354 63.4843 6.40279L63.4841 6.40303L59.9621 9.75903L59.7682 9.94372L59.8145 10.2074L60.6445 14.9374L60.6446 14.9377C60.6479 14.9567 60.6451 14.9681 60.6424 14.975C60.6391 14.9835 60.6335 14.9907 60.6273 14.9956C60.6249 14.9975 60.623 14.9986 60.6217 14.9993C60.621 14.999 60.6202 14.9986 60.6193 14.9982C60.6193 14.9982 60.6192 14.9981 60.6192 14.9981L56.2285 12.7423L55.9999 12.6249L55.7714 12.7423L51.3824 14.9983L51.3825 14.9988C51.3821 14.999 51.3817 14.9991 51.3813 14.9993C51.38 14.9986 51.378 14.9975 51.3757 14.9956C51.3695 14.9907 51.3639 14.9835 51.3606 14.975C51.3579 14.9681 51.3551 14.9567 51.3584 14.9377L51.3585 14.9374L52.1885 10.2074L52.2348 9.94368L52.0409 9.75898L48.5182 6.40331Z" stroke="black" stroke-opacity="0.2"/>
<path d="M48.5182 6.40331C48.5182 6.40326 48.5181 6.40321 48.5181 6.40316C48.5086 6.39414 48.505 6.38631 48.503 6.378C48.5006 6.36754 48.5005 6.35324 48.5049 6.33826C48.5094 6.32323 48.5162 6.31512 48.519 6.3125C48.5191 6.31241 48.5192 6.31232 48.5193 6.31223C48.5199 6.31154 48.5206 6.31085 48.5256 6.31014L48.5263 6.31004L53.4243 5.61404L53.6828 5.57732L53.8004 5.34431L55.9843 1.01745C55.9883 1.00946 55.9917 1.00532 55.9934 1.00352C55.9951 1.00167 55.9962 1.00095 55.9967 1.00068C55.9976 1.00013 55.9991 0.999512 56.0015 0.999512C56.0039 0.999512 56.0054 1.00013 56.0063 1.00068C56.0068 1.00094 56.0079 1.00167 56.0096 1.00352C56.0113 1.00532 56.0147 1.00946 56.0187 1.01745L58.2026 5.34431L58.3202 5.57732L58.5787 5.61404L63.4767 6.31004L63.4774 6.31014C63.4824 6.31085 63.4831 6.31154 63.4837 6.3122C63.4838 6.31229 63.4839 6.31238 63.484 6.31246C63.4867 6.31504 63.4934 6.32307 63.4978 6.33797C63.5023 6.35282 63.5021 6.36698 63.4997 6.37735C63.4977 6.38559 63.4941 6.39354 63.4843 6.40279L63.4841 6.40303L59.9621 9.75903L59.7682 9.94372L59.8145 10.2074L60.6445 14.9374L60.6446 14.9377C60.6479 14.9567 60.6451 14.9681 60.6424 14.975C60.6391 14.9835 60.6335 14.9907 60.6273 14.9956C60.6249 14.9975 60.623 14.9986 60.6217 14.9993C60.621 14.999 60.6202 14.9986 60.6193 14.9982C60.6193 14.9982 60.6192 14.9981 60.6192 14.9981L56.2285 12.7423L55.9999 12.6249L55.7714 12.7423L51.3824 14.9983L51.3825 14.9988C51.3821 14.999 51.3817 14.9991 51.3813 14.9993C51.38 14.9986 51.378 14.9975 51.3757 14.9956C51.3695 14.9907 51.3639 14.9835 51.3606 14.975C51.3579 14.9681 51.3551 14.9567 51.3584 14.9377L51.3585 14.9374L52.1885 10.2074L52.2348 9.94368L52.0409 9.75898L48.5182 6.40331Z" stroke="black" stroke-opacity="0.2"/>
<path d="M48.5182 6.40331C48.5182 6.40326 48.5181 6.40321 48.5181 6.40316C48.5086 6.39414 48.505 6.38631 48.503 6.378C48.5006 6.36754 48.5005 6.35324 48.5049 6.33826C48.5094 6.32323 48.5162 6.31512 48.519 6.3125C48.5191 6.31241 48.5192 6.31232 48.5193 6.31223C48.5199 6.31154 48.5206 6.31085 48.5256 6.31014L48.5263 6.31004L53.4243 5.61404L53.6828 5.57732L53.8004 5.34431L55.9843 1.01745C55.9883 1.00946 55.9917 1.00532 55.9934 1.00352C55.9951 1.00167 55.9962 1.00095 55.9967 1.00068C55.9976 1.00013 55.9991 0.999512 56.0015 0.999512C56.0039 0.999512 56.0054 1.00013 56.0063 1.00068C56.0068 1.00094 56.0079 1.00167 56.0096 1.00352C56.0113 1.00532 56.0147 1.00946 56.0187 1.01745L58.2026 5.34431L58.3202 5.57732L58.5787 5.61404L63.4767 6.31004L63.4774 6.31014C63.4824 6.31085 63.4831 6.31154 63.4837 6.3122C63.4838 6.31229 63.4839 6.31238 63.484 6.31246C63.4867 6.31504 63.4934 6.32307 63.4978 6.33797C63.5023 6.35282 63.5021 6.36698 63.4997 6.37735C63.4977 6.38559 63.4941 6.39354 63.4843 6.40279L63.4841 6.40303L59.9621 9.75903L59.7682 9.94372L59.8145 10.2074L60.6445 14.9374L60.6446 14.9377C60.6479 14.9567 60.6451 14.9681 60.6424 14.975C60.6391 14.9835 60.6335 14.9907 60.6273 14.9956C60.6249 14.9975 60.623 14.9986 60.6217 14.9993C60.621 14.999 60.6202 14.9986 60.6193 14.9982C60.6193 14.9982 60.6192 14.9981 60.6192 14.9981L56.2285 12.7423L55.9999 12.6249L55.7714 12.7423L51.3824 14.9983L51.3825 14.9988C51.3821 14.999 51.3817 14.9991 51.3813 14.9993C51.38 14.9986 51.378 14.9975 51.3757 14.9956C51.3695 14.9907 51.3639 14.9835 51.3606 14.975C51.3579 14.9681 51.3551 14.9567 51.3584 14.9377L51.3585 14.9374L52.1885 10.2074L52.2348 9.94368L52.0409 9.75898L48.5182 6.40331Z" stroke="black" stroke-opacity="0.2"/>
</g>
<g clip-path="url(#clip3_9_307)">
<path d="M72.5182 6.40331C72.5182 6.40326 72.5181 6.40321 72.5181 6.40316C72.5086 6.39414 72.505 6.38631 72.503 6.378C72.5006 6.36754 72.5005 6.35324 72.5049 6.33826C72.5094 6.32323 72.5162 6.31512 72.519 6.3125C72.5191 6.31241 72.5192 6.31232 72.5193 6.31223C72.5199 6.31154 72.5206 6.31085 72.5256 6.31014L72.5263 6.31004L77.4243 5.61404L77.6828 5.57732L77.8004 5.34431L79.9843 1.01745C79.9883 1.00946 79.9917 1.00532 79.9934 1.00352C79.9951 1.00167 79.9962 1.00095 79.9967 1.00068C79.9976 1.00013 79.9991 0.999512 80.0015 0.999512C80.0039 0.999512 80.0054 1.00013 80.0063 1.00068C80.0068 1.00094 80.0079 1.00167 80.0096 1.00352C80.0113 1.00532 80.0147 1.00946 80.0187 1.01745L82.2026 5.34431L82.3202 5.57732L82.5787 5.61404L87.4767 6.31004L87.4774 6.31014C87.4824 6.31085 87.4831 6.31154 87.4837 6.3122C87.4838 6.31229 87.4839 6.31238 87.484 6.31246C87.4867 6.31504 87.4934 6.32307 87.4978 6.33797C87.5023 6.35282 87.5021 6.36698 87.4997 6.37735C87.4977 6.38559 87.4941 6.39354 87.4843 6.40279L87.4841 6.40303L83.9621 9.75903L83.7682 9.94372L83.8145 10.2074L84.6445 14.9374L84.6446 14.9377C84.6479 14.9567 84.6451 14.9681 84.6424 14.975C84.6391 14.9835 84.6335 14.9907 84.6273 14.9956C84.6249 14.9975 84.623 14.9986 84.6217 14.9993C84.621 14.999 84.6202 14.9986 84.6193 14.9982C84.6193 14.9982 84.6192 14.9981 84.6192 14.9981L80.2285 12.7423L79.9999 12.6249L79.7714 12.7423L75.3824 14.9983L75.3825 14.9988C75.3821 14.999 75.3817 14.9991 75.3813 14.9993C75.38 14.9986 75.378 14.9975 75.3757 14.9956C75.3695 14.9907 75.3639 14.9835 75.3606 14.975C75.3579 14.9681 75.3551 14.9567 75.3584 14.9377L75.3585 14.9374L76.1885 10.2074L76.2348 9.94368L76.0409 9.75898L72.5182 6.40331Z" fill="white"/>
<path d="M72.5182 6.40331C72.5182 6.40326 72.5181 6.40321 72.5181 6.40316C72.5086 6.39414 72.505 6.38631 72.503 6.378C72.5006 6.36754 72.5005 6.35324 72.5049 6.33826C72.5094 6.32323 72.5162 6.31512 72.519 6.3125C72.5191 6.31241 72.5192 6.31232 72.5193 6.31223C72.5199 6.31154 72.5206 6.31085 72.5256 6.31014L72.5263 6.31004L77.4243 5.61404L77.6828 5.57732L77.8004 5.34431L79.9843 1.01745C79.9883 1.00946 79.9917 1.00532 79.9934 1.00352C79.9951 1.00167 79.9962 1.00095 79.9967 1.00068C79.9976 1.00013 79.9991 0.999512 80.0015 0.999512C80.0039 0.999512 80.0054 1.00013 80.0063 1.00068C80.0068 1.00094 80.0079 1.00167 80.0096 1.00352C80.0113 1.00532 80.0147 1.00946 80.0187 1.01745L82.2026 5.34431L82.3202 5.57732L82.5787 5.61404L87.4767 6.31004L87.4774 6.31014C87.4824 6.31085 87.4831 6.31154 87.4837 6.3122C87.4838 6.31229 87.4839 6.31238 87.484 6.31246C87.4867 6.31504 87.4934 6.32307 87.4978 6.33797C87.5023 6.35282 87.5021 6.36698 87.4997 6.37735C87.4977 6.38559 87.4941 6.39354 87.4843 6.40279L87.4841 6.40303L83.9621 9.75903L83.7682 9.94372L83.8145 10.2074L84.6445 14.9374L84.6446 14.9377C84.6479 14.9567 84.6451 14.9681 84.6424 14.975C84.6391 14.9835 84.6335 14.9907 84.6273 14.9956C84.6249 14.9975 84.623 14.9986 84.6217 14.9993C84.621 14.999 84.6202 14.9986 84.6193 14.9982C84.6193 14.9982 84.6192 14.9981 84.6192 14.9981L80.2285 12.7423L79.9999 12.6249L79.7714 12.7423L75.3824 14.9983L75.3825 14.9988C75.3821 14.999 75.3817 14.9991 75.3813 14.9993C75.38 14.9986 75.378 14.9975 75.3757 14.9956C75.3695 14.9907 75.3639 14.9835 75.3606 14.975C75.3579 14.9681 75.3551 14.9567 75.3584 14.9377L75.3585 14.9374L76.1885 10.2074L76.2348 9.94368L76.0409 9.75898L72.5182 6.40331Z" stroke="#0F2948"/>
<path d="M72.5182 6.40331C72.5182 6.40326 72.5181 6.40321 72.5181 6.40316C72.5086 6.39414 72.505 6.38631 72.503 6.378C72.5006 6.36754 72.5005 6.35324 72.5049 6.33826C72.5094 6.32323 72.5162 6.31512 72.519 6.3125C72.5191 6.31241 72.5192 6.31232 72.5193 6.31223C72.5199 6.31154 72.5206 6.31085 72.5256 6.31014L72.5263 6.31004L77.4243 5.61404L77.6828 5.57732L77.8004 5.34431L79.9843 1.01745C79.9883 1.00946 79.9917 1.00532 79.9934 1.00352C79.9951 1.00167 79.9962 1.00095 79.9967 1.00068C79.9976 1.00013 79.9991 0.999512 80.0015 0.999512C80.0039 0.999512 80.0054 1.00013 80.0063 1.00068C80.0068 1.00094 80.0079 1.00167 80.0096 1.00352C80.0113 1.00532 80.0147 1.00946 80.0187 1.01745L82.2026 5.34431L82.3202 5.57732L82.5787 5.61404L87.4767 6.31004L87.4774 6.31014C87.4824 6.31085 87.4831 6.31154 87.4837 6.3122C87.4838 6.31229 87.4839 6.31238 87.484 6.31246C87.4867 6.31504 87.4934 6.32307 87.4978 6.33797C87.5023 6.35282 87.5021 6.36698 87.4997 6.37735C87.4977 6.38559 87.4941 6.39354 87.4843 6.40279L87.4841 6.40303L83.9621 9.75903L83.7682 9.94372L83.8145 10.2074L84.6445 14.9374L84.6446 14.9377C84.6479 14.9567 84.6451 14.9681 84.6424 14.975C84.6391 14.9835 84.6335 14.9907 84.6273 14.9956C84.6249 14.9975 84.623 14.9986 84.6217 14.9993C84.621 14.999 84.6202 14.9986 84.6193 14.9982C84.6193 14.9982 84.6192 14.9981 84.6192 14.9981L80.2285 12.7423L79.9999 12.6249L79.7714 12.7423L75.3824 14.9983L75.3825 14.9988C75.3821 14.999 75.3817 14.9991 75.3813 14.9993C75.38 14.9986 75.378 14.9975 75.3757 14.9956C75.3695 14.9907 75.3639 14.9835 75.3606 14.975C75.3579 14.9681 75.3551 14.9567 75.3584 14.9377L75.3585 14.9374L76.1885 10.2074L76.2348 9.94368L76.0409 9.75898L72.5182 6.40331Z" stroke="black" stroke-opacity="0.2"/>
<path d="M72.5182 6.40331C72.5182 6.40326 72.5181 6.40321 72.5181 6.40316C72.5086 6.39414 72.505 6.38631 72.503 6.378C72.5006 6.36754 72.5005 6.35324 72.5049 6.33826C72.5094 6.32323 72.5162 6.31512 72.519 6.3125C72.5191 6.31241 72.5192 6.31232 72.5193 6.31223C72.5199 6.31154 72.5206 6.31085 72.5256 6.31014L72.5263 6.31004L77.4243 5.61404L77.6828 5.57732L77.8004 5.34431L79.9843 1.01745C79.9883 1.00946 79.9917 1.00532 79.9934 1.00352C79.9951 1.00167 79.9962 1.00095 79.9967 1.00068C79.9976 1.00013 79.9991 0.999512 80.0015 0.999512C80.0039 0.999512 80.0054 1.00013 80.0063 1.00068C80.0068 1.00094 80.0079 1.00167 80.0096 1.00352C80.0113 1.00532 80.0147 1.00946 80.0187 1.01745L82.2026 5.34431L82.3202 5.57732L82.5787 5.61404L87.4767 6.31004L87.4774 6.31014C87.4824 6.31085 87.4831 6.31154 87.4837 6.3122C87.4838 6.31229 87.4839 6.31238 87.484 6.31246C87.4867 6.31504 87.4934 6.32307 87.4978 6.33797C87.5023 6.35282 87.5021 6.36698 87.4997 6.37735C87.4977 6.38559 87.4941 6.39354 87.4843 6.40279L87.4841 6.40303L83.9621 9.75903L83.7682 9.94372L83.8145 10.2074L84.6445 14.9374L84.6446 14.9377C84.6479 14.9567 84.6451 14.9681 84.6424 14.975C84.6391 14.9835 84.6335 14.9907 84.6273 14.9956C84.6249 14.9975 84.623 14.9986 84.6217 14.9993C84.621 14.999 84.6202 14.9986 84.6193 14.9982C84.6193 14.9982 84.6192 14.9981 84.6192 14.9981L80.2285 12.7423L79.9999 12.6249L79.7714 12.7423L75.3824 14.9983L75.3825 14.9988C75.3821 14.999 75.3817 14.9991 75.3813 14.9993C75.38 14.9986 75.378 14.9975 75.3757 14.9956C75.3695 14.9907 75.3639 14.9835 75.3606 14.975C75.3579 14.9681 75.3551 14.9567 75.3584 14.9377L75.3585 14.9374L76.1885 10.2074L76.2348 9.94368L76.0409 9.75898L72.5182 6.40331Z" stroke="black" stroke-opacity="0.2"/>
<path d="M72.5182 6.40331C72.5182 6.40326 72.5181 6.40321 72.5181 6.40316C72.5086 6.39414 72.505 6.38631 72.503 6.378C72.5006 6.36754 72.5005 6.35324 72.5049 6.33826C72.5094 6.32323 72.5162 6.31512 72.519 6.3125C72.5191 6.31241 72.5192 6.31232 72.5193 6.31223C72.5199 6.31154 72.5206 6.31085 72.5256 6.31014L72.5263 6.31004L77.4243 5.61404L77.6828 5.57732L77.8004 5.34431L79.9843 1.01745C79.9883 1.00946 79.9917 1.00532 79.9934 1.00352C79.9951 1.00167 79.9962 1.00095 79.9967 1.00068C79.9976 1.00013 79.9991 0.999512 80.0015 0.999512C80.0039 0.999512 80.0054 1.00013 80.0063 1.00068C80.0068 1.00094 80.0079 1.00167 80.0096 1.00352C80.0113 1.00532 80.0147 1.00946 80.0187 1.01745L82.2026 5.34431L82.3202 5.57732L82.5787 5.61404L87.4767 6.31004L87.4774 6.31014C87.4824 6.31085 87.4831 6.31154 87.4837 6.3122C87.4838 6.31229 87.4839 6.31238 87.484 6.31246C87.4867 6.31504 87.4934 6.32307 87.4978 6.33797C87.5023 6.35282 87.5021 6.36698 87.4997 6.37735C87.4977 6.38559 87.4941 6.39354 87.4843 6.40279L87.4841 6.40303L83.9621 9.75903L83.7682 9.94372L83.8145 10.2074L84.6445 14.9374L84.6446 14.9377C84.6479 14.9567 84.6451 14.9681 84.6424 14.975C84.6391 14.9835 84.6335 14.9907 84.6273 14.9956C84.6249 14.9975 84.623 14.9986 84.6217 14.9993C84.621 14.999 84.6202 14.9986 84.6193 14.9982C84.6193 14.9982 84.6192 14.9981 84.6192 14.9981L80.2285 12.7423L79.9999 12.6249L79.7714 12.7423L75.3824 14.9983L75.3825 14.9988C75.3821 14.999 75.3817 14.9991 75.3813 14.9993C75.38 14.9986 75.378 14.9975 75.3757 14.9956C75.3695 14.9907 75.3639 14.9835 75.3606 14.975C75.3579 14.9681 75.3551 14.9567 75.3584 14.9377L75.3585 14.9374L76.1885 10.2074L76.2348 9.94368L76.0409 9.75898L72.5182 6.40331Z" stroke="black" stroke-opacity="0.2"/>
<path d="M72.5182 6.40331C72.5182 6.40326 72.5181 6.40321 72.5181 6.40316C72.5086 6.39414 72.505 6.38631 72.503 6.378C72.5006 6.36754 72.5005 6.35324 72.5049 6.33826C72.5094 6.32323 72.5162 6.31512 72.519 6.3125C72.5191 6.31241 72.5192 6.31232 72.5193 6.31223C72.5199 6.31154 72.5206 6.31085 72.5256 6.31014L72.5263 6.31004L77.4243 5.61404L77.6828 5.57732L77.8004 5.34431L79.9843 1.01745C79.9883 1.00946 79.9917 1.00532 79.9934 1.00352C79.9951 1.00167 79.9962 1.00095 79.9967 1.00068C79.9976 1.00013 79.9991 0.999512 80.0015 0.999512C80.0039 0.999512 80.0054 1.00013 80.0063 1.00068C80.0068 1.00094 80.0079 1.00167 80.0096 1.00352C80.0113 1.00532 80.0147 1.00946 80.0187 1.01745L82.2026 5.34431L82.3202 5.57732L82.5787 5.61404L87.4767 6.31004L87.4774 6.31014C87.4824 6.31085 87.4831 6.31154 87.4837 6.3122C87.4838 6.31229 87.4839 6.31238 87.484 6.31246C87.4867 6.31504 87.4934 6.32307 87.4978 6.33797C87.5023 6.35282 87.5021 6.36698 87.4997 6.37735C87.4977 6.38559 87.4941 6.39354 87.4843 6.40279L87.4841 6.40303L83.9621 9.75903L83.7682 9.94372L83.8145 10.2074L84.6445 14.9374L84.6446 14.9377C84.6479 14.9567 84.6451 14.9681 84.6424 14.975C84.6391 14.9835 84.6335 14.9907 84.6273 14.9956C84.6249 14.9975 84.623 14.9986 84.6217 14.9993C84.621 14.999 84.6202 14.9986 84.6193 14.9982C84.6193 14.9982 84.6192 14.9981 84.6192 14.9981L80.2285 12.7423L79.9999 12.6249L79.7714 12.7423L75.3824 14.9983L75.3825 14.9988C75.3821 14.999 75.3817 14.9991 75.3813 14.9993C75.38 14.9986 75.378 14.9975 75.3757 14.9956C75.3695 14.9907 75.3639 14.9835 75.3606 14.975C75.3579 14.9681 75.3551 14.9567 75.3584 14.9377L75.3585 14.9374L76.1885 10.2074L76.2348 9.94368L76.0409 9.75898L72.5182 6.40331Z" stroke="black" stroke-opacity="0.2"/>
</g>
<g clip-path="url(#clip4_9_307)">
<path d="M96.5182 6.40331C96.5182 6.40326 96.5181 6.40321 96.5181 6.40316C96.5086 6.39414 96.505 6.38631 96.503 6.378C96.5006 6.36754 96.5005 6.35324 96.5049 6.33826C96.5094 6.32323 96.5162 6.31512 96.519 6.3125C96.5191 6.31241 96.5192 6.31232 96.5193 6.31223C96.5199 6.31154 96.5206 6.31085 96.5256 6.31014L96.5263 6.31004L101.424 5.61404L101.683 5.57732L101.8 5.34431L103.984 1.01745C103.988 1.00946 103.992 1.00532 103.993 1.00352C103.995 1.00167 103.996 1.00095 103.997 1.00068C103.998 1.00013 103.999 0.999512 104.001 0.999512C104.004 0.999512 104.005 1.00013 104.006 1.00068C104.007 1.00094 104.008 1.00167 104.01 1.00352C104.011 1.00532 104.015 1.00946 104.019 1.01745L106.203 5.34431L106.32 5.57732L106.579 5.61404L111.477 6.31004L111.477 6.31014C111.482 6.31085 111.483 6.31154 111.484 6.3122C111.484 6.31229 111.484 6.31238 111.484 6.31246C111.487 6.31504 111.493 6.32307 111.498 6.33797C111.502 6.35282 111.502 6.36698 111.5 6.37735C111.498 6.38559 111.494 6.39354 111.484 6.40279L111.484 6.40303L107.962 9.75903L107.768 9.94372L107.815 10.2074L108.645 14.9374L108.645 14.9377C108.648 14.9567 108.645 14.9681 108.642 14.975C108.639 14.9835 108.633 14.9907 108.627 14.9956C108.625 14.9975 108.623 14.9986 108.622 14.9993C108.621 14.999 108.62 14.9986 108.619 14.9982C108.619 14.9982 108.619 14.9981 108.619 14.9981L104.228 12.7423L104 12.6249L103.771 12.7423L99.3824 14.9983L99.3825 14.9988C99.3821 14.999 99.3817 14.9991 99.3813 14.9993C99.38 14.9986 99.378 14.9975 99.3757 14.9956C99.3695 14.9907 99.3639 14.9835 99.3606 14.975C99.3579 14.9681 99.3551 14.9567 99.3584 14.9377L99.3585 14.9374L100.188 10.2074L100.235 9.94368L100.041 9.75898L96.5182 6.40331Z" fill="white"/>
<path d="M96.5182 6.40331C96.5182 6.40326 96.5181 6.40321 96.5181 6.40316C96.5086 6.39414 96.505 6.38631 96.503 6.378C96.5006 6.36754 96.5005 6.35324 96.5049 6.33826C96.5094 6.32323 96.5162 6.31512 96.519 6.3125C96.5191 6.31241 96.5192 6.31232 96.5193 6.31223C96.5199 6.31154 96.5206 6.31085 96.5256 6.31014L96.5263 6.31004L101.424 5.61404L101.683 5.57732L101.8 5.34431L103.984 1.01745C103.988 1.00946 103.992 1.00532 103.993 1.00352C103.995 1.00167 103.996 1.00095 103.997 1.00068C103.998 1.00013 103.999 0.999512 104.001 0.999512C104.004 0.999512 104.005 1.00013 104.006 1.00068C104.007 1.00094 104.008 1.00167 104.01 1.00352C104.011 1.00532 104.015 1.00946 104.019 1.01745L106.203 5.34431L106.32 5.57732L106.579 5.61404L111.477 6.31004L111.477 6.31014C111.482 6.31085 111.483 6.31154 111.484 6.3122C111.484 6.31229 111.484 6.31238 111.484 6.31246C111.487 6.31504 111.493 6.32307 111.498 6.33797C111.502 6.35282 111.502 6.36698 111.5 6.37735C111.498 6.38559 111.494 6.39354 111.484 6.40279L111.484 6.40303L107.962 9.75903L107.768 9.94372L107.815 10.2074L108.645 14.9374L108.645 14.9377C108.648 14.9567 108.645 14.9681 108.642 14.975C108.639 14.9835 108.633 14.9907 108.627 14.9956C108.625 14.9975 108.623 14.9986 108.622 14.9993C108.621 14.999 108.62 14.9986 108.619 14.9982C108.619 14.9982 108.619 14.9981 108.619 14.9981L104.228 12.7423L104 12.6249L103.771 12.7423L99.3824 14.9983L99.3825 14.9988C99.3821 14.999 99.3817 14.9991 99.3813 14.9993C99.38 14.9986 99.378 14.9975 99.3757 14.9956C99.3695 14.9907 99.3639 14.9835 99.3606 14.975C99.3579 14.9681 99.3551 14.9567 99.3584 14.9377L99.3585 14.9374L100.188 10.2074L100.235 9.94368L100.041 9.75898L96.5182 6.40331Z" stroke="#0F2948"/>
<path d="M96.5182 6.40331C96.5182 6.40326 96.5181 6.40321 96.5181 6.40316C96.5086 6.39414 96.505 6.38631 96.503 6.378C96.5006 6.36754 96.5005 6.35324 96.5049 6.33826C96.5094 6.32323 96.5162 6.31512 96.519 6.3125C96.5191 6.31241 96.5192 6.31232 96.5193 6.31223C96.5199 6.31154 96.5206 6.31085 96.5256 6.31014L96.5263 6.31004L101.424 5.61404L101.683 5.57732L101.8 5.34431L103.984 1.01745C103.988 1.00946 103.992 1.00532 103.993 1.00352C103.995 1.00167 103.996 1.00095 103.997 1.00068C103.998 1.00013 103.999 0.999512 104.001 0.999512C104.004 0.999512 104.005 1.00013 104.006 1.00068C104.007 1.00094 104.008 1.00167 104.01 1.00352C104.011 1.00532 104.015 1.00946 104.019 1.01745L106.203 5.34431L106.32 5.57732L106.579 5.61404L111.477 6.31004L111.477 6.31014C111.482 6.31085 111.483 6.31154 111.484 6.3122C111.484 6.31229 111.484 6.31238 111.484 6.31246C111.487 6.31504 111.493 6.32307 111.498 6.33797C111.502 6.35282 111.502 6.36698 111.5 6.37735C111.498 6.38559 111.494 6.39354 111.484 6.40279L111.484 6.40303L107.962 9.75903L107.768 9.94372L107.815 10.2074L108.645 14.9374L108.645 14.9377C108.648 14.9567 108.645 14.9681 108.642 14.975C108.639 14.9835 108.633 14.9907 108.627 14.9956C108.625 14.9975 108.623 14.9986 108.622 14.9993C108.621 14.999 108.62 14.9986 108.619 14.9982C108.619 14.9982 108.619 14.9981 108.619 14.9981L104.228 12.7423L104 12.6249L103.771 12.7423L99.3824 14.9983L99.3825 14.9988C99.3821 14.999 99.3817 14.9991 99.3813 14.9993C99.38 14.9986 99.378 14.9975 99.3757 14.9956C99.3695 14.9907 99.3639 14.9835 99.3606 14.975C99.3579 14.9681 99.3551 14.9567 99.3584 14.9377L99.3585 14.9374L100.188 10.2074L100.235 9.94368L100.041 9.75898L96.5182 6.40331Z" stroke="black" stroke-opacity="0.2"/>
<path d="M96.5182 6.40331C96.5182 6.40326 96.5181 6.40321 96.5181 6.40316C96.5086 6.39414 96.505 6.38631 96.503 6.378C96.5006 6.36754 96.5005 6.35324 96.5049 6.33826C96.5094 6.32323 96.5162 6.31512 96.519 6.3125C96.5191 6.31241 96.5192 6.31232 96.5193 6.31223C96.5199 6.31154 96.5206 6.31085 96.5256 6.31014L96.5263 6.31004L101.424 5.61404L101.683 5.57732L101.8 5.34431L103.984 1.01745C103.988 1.00946 103.992 1.00532 103.993 1.00352C103.995 1.00167 103.996 1.00095 103.997 1.00068C103.998 1.00013 103.999 0.999512 104.001 0.999512C104.004 0.999512 104.005 1.00013 104.006 1.00068C104.007 1.00094 104.008 1.00167 104.01 1.00352C104.011 1.00532 104.015 1.00946 104.019 1.01745L106.203 5.34431L106.32 5.57732L106.579 5.61404L111.477 6.31004L111.477 6.31014C111.482 6.31085 111.483 6.31154 111.484 6.3122C111.484 6.31229 111.484 6.31238 111.484 6.31246C111.487 6.31504 111.493 6.32307 111.498 6.33797C111.502 6.35282 111.502 6.36698 111.5 6.37735C111.498 6.38559 111.494 6.39354 111.484 6.40279L111.484 6.40303L107.962 9.75903L107.768 9.94372L107.815 10.2074L108.645 14.9374L108.645 14.9377C108.648 14.9567 108.645 14.9681 108.642 14.975C108.639 14.9835 108.633 14.9907 108.627 14.9956C108.625 14.9975 108.623 14.9986 108.622 14.9993C108.621 14.999 108.62 14.9986 108.619 14.9982C108.619 14.9982 108.619 14.9981 108.619 14.9981L104.228 12.7423L104 12.6249L103.771 12.7423L99.3824 14.9983L99.3825 14.9988C99.3821 14.999 99.3817 14.9991 99.3813 14.9993C99.38 14.9986 99.378 14.9975 99.3757 14.9956C99.3695 14.9907 99.3639 14.9835 99.3606 14.975C99.3579 14.9681 99.3551 14.9567 99.3584 14.9377L99.3585 14.9374L100.188 10.2074L100.235 9.94368L100.041 9.75898L96.5182 6.40331Z" stroke="black" stroke-opacity="0.2"/>
<path d="M96.5182 6.40331C96.5182 6.40326 96.5181 6.40321 96.5181 6.40316C96.5086 6.39414 96.505 6.38631 96.503 6.378C96.5006 6.36754 96.5005 6.35324 96.5049 6.33826C96.5094 6.32323 96.5162 6.31512 96.519 6.3125C96.5191 6.31241 96.5192 6.31232 96.5193 6.31223C96.5199 6.31154 96.5206 6.31085 96.5256 6.31014L96.5263 6.31004L101.424 5.61404L101.683 5.57732L101.8 5.34431L103.984 1.01745C103.988 1.00946 103.992 1.00532 103.993 1.00352C103.995 1.00167 103.996 1.00095 103.997 1.00068C103.998 1.00013 103.999 0.999512 104.001 0.999512C104.004 0.999512 104.005 1.00013 104.006 1.00068C104.007 1.00094 104.008 1.00167 104.01 1.00352C104.011 1.00532 104.015 1.00946 104.019 1.01745L106.203 5.34431L106.32 5.57732L106.579 5.61404L111.477 6.31004L111.477 6.31014C111.482 6.31085 111.483 6.31154 111.484 6.3122C111.484 6.31229 111.484 6.31238 111.484 6.31246C111.487 6.31504 111.493 6.32307 111.498 6.33797C111.502 6.35282 111.502 6.36698 111.5 6.37735C111.498 6.38559 111.494 6.39354 111.484 6.40279L111.484 6.40303L107.962 9.75903L107.768 9.94372L107.815 10.2074L108.645 14.9374L108.645 14.9377C108.648 14.9567 108.645 14.9681 108.642 14.975C108.639 14.9835 108.633 14.9907 108.627 14.9956C108.625 14.9975 108.623 14.9986 108.622 14.9993C108.621 14.999 108.62 14.9986 108.619 14.9982C108.619 14.9982 108.619 14.9981 108.619 14.9981L104.228 12.7423L104 12.6249L103.771 12.7423L99.3824 14.9983L99.3825 14.9988C99.3821 14.999 99.3817 14.9991 99.3813 14.9993C99.38 14.9986 99.378 14.9975 99.3757 14.9956C99.3695 14.9907 99.3639 14.9835 99.3606 14.975C99.3579 14.9681 99.3551 14.9567 99.3584 14.9377L99.3585 14.9374L100.188 10.2074L100.235 9.94368L100.041 9.75898L96.5182 6.40331Z" stroke="black" stroke-opacity="0.2"/>
<path d="M96.5182 6.40331C96.5182 6.40326 96.5181 6.40321 96.5181 6.40316C96.5086 6.39414 96.505 6.38631 96.503 6.378C96.5006 6.36754 96.5005 6.35324 96.5049 6.33826C96.5094 6.32323 96.5162 6.31512 96.519 6.3125C96.5191 6.31241 96.5192 6.31232 96.5193 6.31223C96.5199 6.31154 96.5206 6.31085 96.5256 6.31014L96.5263 6.31004L101.424 5.61404L101.683 5.57732L101.8 5.34431L103.984 1.01745C103.988 1.00946 103.992 1.00532 103.993 1.00352C103.995 1.00167 103.996 1.00095 103.997 1.00068C103.998 1.00013 103.999 0.999512 104.001 0.999512C104.004 0.999512 104.005 1.00013 104.006 1.00068C104.007 1.00094 104.008 1.00167 104.01 1.00352C104.011 1.00532 104.015 1.00946 104.019 1.01745L106.203 5.34431L106.32 5.57732L106.579 5.61404L111.477 6.31004L111.477 6.31014C111.482 6.31085 111.483 6.31154 111.484 6.3122C111.484 6.31229 111.484 6.31238 111.484 6.31246C111.487 6.31504 111.493 6.32307 111.498 6.33797C111.502 6.35282 111.502 6.36698 111.5 6.37735C111.498 6.38559 111.494 6.39354 111.484 6.40279L111.484 6.40303L107.962 9.75903L107.768 9.94372L107.815 10.2074L108.645 14.9374L108.645 14.9377C108.648 14.9567 108.645 14.9681 108.642 14.975C108.639 14.9835 108.633 14.9907 108.627 14.9956C108.625 14.9975 108.623 14.9986 108.622 14.9993C108.621 14.999 108.62 14.9986 108.619 14.9982C108.619 14.9982 108.619 14.9981 108.619 14.9981L104.228 12.7423L104 12.6249L103.771 12.7423L99.3824 14.9983L99.3825 14.9988C99.3821 14.999 99.3817 14.9991 99.3813 14.9993C99.38 14.9986 99.378 14.9975 99.3757 14.9956C99.3695 14.9907 99.3639 14.9835 99.3606 14.975C99.3579 14.9681 99.3551 14.9567 99.3584 14.9377L99.3585 14.9374L100.188 10.2074L100.235 9.94368L100.041 9.75898L96.5182 6.40331Z" stroke="black" stroke-opacity="0.2"/>
</g>
<defs>
<clipPath id="clip0_9_307">
<rect width="16" height="16" fill="white"/>
</clipPath>
<clipPath id="clip1_9_307">
<rect width="16" height="16" fill="white" transform="translate(24)"/>
</clipPath>
<clipPath id="clip2_9_307">
<rect width="16" height="16" fill="white" transform="translate(48)"/>
</clipPath>
<clipPath id="clip3_9_307">
<rect width="16" height="16" fill="white" transform="translate(72)"/>
</clipPath>
<clipPath id="clip4_9_307">
<rect width="16" height="16" fill="white" transform="translate(96)"/>
</clipPath>
</defs>
</svg>
